<?xml version="1.0" encoding="utf-8"?>
<!-- Generator: Adobe Illustrator 25.2.0, SVG Export Plug-In . SVG Version: 6.00 Build 0)  -->
<svg version="1.1" id="Layer_1" xmlns:sketch="http://www.bohemiancoding.com/sketch/ns"
	 xmlns="http://www.w3.org/2000/svg" xmlns:xlink="http://www.w3.org/1999/xlink" x="0px" y="0px" viewBox="0 0 32 32"
	 style="enable-background:new 0 0 32 32;" xml:space="preserve">
<style type="text/css">
	.st0{fill-rule:evenodd;clip-rule:evenodd;}
</style>
<desc></desc>
<g id="Page-1">
	<g id="icon-17-medal">
		<path id="medal" class="st0" d="M18.7,1.1h-5.3l0,0v15.4c0.8-0.3,1.7-0.5,2.7-0.5s1.8,0.2,2.7,0.5V1.1L18.7,1.1z M19.7,1.1h3.2
			v12.8l-1.5,4.3c-0.5-0.5-1.1-0.9-1.7-1.2V1.1L19.7,1.1L19.7,1.1z M12.3,1.1H9.1v12.8l1.5,4.3l0,0c0.5-0.5,1.1-0.9,1.7-1.2V1.1
			L12.3,1.1z M9.7,19L8,13.9V0h16v13.9L22.3,19c1.1,1.4,1.7,3.1,1.7,5c0,4.4-3.6,8-8,8s-8-3.6-8-8C8,22.1,8.6,20.4,9.7,19L9.7,19
			L9.7,19z M16,30.9c3.8,0,6.9-3.1,6.9-6.9s-3.1-6.9-6.9-6.9S9.1,20.2,9.1,24S12.2,30.9,16,30.9L16,30.9z M16,26.6l-3,2.2l0.8-3.7
			l-2.7-2.7h3.7l1.1-3.2l1.1,3.2h3.7l-2.7,2.7l1.1,3.7L16,26.6L16,26.6z"/>
	</g>
</g>
</svg>
