<?xml version="1.0" encoding="utf-8"?>
<!-- Generator: Adobe Illustrator 25.2.0, SVG Export Plug-In . SVG Version: 6.00 Build 0)  -->
<svg version="1.1" id="Layer_1" xmlns="http://www.w3.org/2000/svg" xmlns:xlink="http://www.w3.org/1999/xlink" x="0px" y="0px"
	 viewBox="0 0 24 24" style="enable-background:new 0 0 24 24;" xml:space="preserve">
<style type="text/css">
	.st0{fill:none;stroke:#000000;stroke-width:0.8926;stroke-linecap:round;stroke-linejoin:round;}
</style>
<path class="st0" d="M18.6,15.6L18.6,15.6c0.7,0,1.2,0.7,1.2,1.5c0,0.8-0.6,1.5-1.2,1.5h-0.8c0.7,0,1.2,0.7,1.2,1.5
	c0,0.8-0.6,1-1.2,1h-5.3c-2.3,0-2.9-0.5-5.7-1v-8.3c2,0,5.3-4.4,5.3-8.3c0-1.5,1.8-2.1,2.5,0.7c0.4,1.7-0.8,5.1-0.8,5.1h6.6
	c0.7,0,1.2,0.7,1.2,1.5c0,0.8-0.6,1.9-1.2,1.9h-0.8c0.7,0,1.2,0.7,1.2,1.5c0,0.8-0.6,1.5-1.2,1.5H18.6"/>
<rect x="2.6" y="10.2" class="st0" width="4.1" height="11.7"/>
<line class="st0" x1="4.8" y1="19.4" x2="4.8" y2="19.4"/>
<path class="st0" d="M4.8,19.4c-0.1,0-0.2,0.1-0.2,0.2s0.1,0.2,0.2,0.2S5,19.8,5,19.7S4.9,19.4,4.8,19.4"/>
</svg>
