<?xml version="1.0" encoding="utf-8"?>
<!-- Generator: Adobe Illustrator 25.2.0, SVG Export Plug-In . SVG Version: 6.00 Build 0)  -->
<svg version="1.1" id="Layer_1" xmlns="http://www.w3.org/2000/svg" xmlns:xlink="http://www.w3.org/1999/xlink" x="0px" y="0px"
	 viewBox="0 0 512 512" style="enable-background:new 0 0 512 512;" xml:space="preserve">
<path d="M459.7,319.1c0-3-2.5-5.5-5.5-5.5l0,0h-36.8c-1.5,0-2.9,0.6-3.9,1.6c-10.9,10.9-25.6,17-41,17h-0.8v-57
	c0-7-5.7-12.7-12.7-12.7h-3.2c-9.4,0-18.4,3.7-25.1,10.2v-70.1c0-4.7-1.4-9.3-4.1-13.3h4.1c2.8,0.1,5.3-2,5.7-4.8
	c0.4-3-1.7-5.8-4.8-6.2c-0.2,0-0.5,0-0.7,0h-38.2c-1.3,0-2.5-0.1-3.8-0.3c-3.8-6.3-10.3-10.6-17.6-11.6c-2.5-4-3.8-8.5-3.8-13.2
	v-3.2c0-0.9,0.7-1.6,1.6-1.6H344c11.7,0,23,4.5,31.5,12.6l37.3,32.7c1,0.9,2.3,1.4,3.6,1.4h37.9c3,0,5.5-2.5,5.5-5.5l0,0l0,0
	c0-3-2.5-5.5-5.5-5.5l0,0h-35.8L382.8,153c-10-9.5-23-14.9-36.8-15.4v-3c0.1-17.5-6.6-34.4-18.6-47.2v-34c0-3-2.5-5.5-5.5-5.5l0,0
	l0,0c-3,0-5.5,2.5-5.5,5.5v36.3c0,1.5,0.6,2.9,1.6,3.9c10.9,10.9,17,25.6,17,41v2.9h-65.9c-7,0-12.7,5.7-12.7,12.7v3.2
	c0,4.9,1,9.7,2.9,14.2c-7.4,2.5-13.2,8.4-15.6,15.8c-4.3-3.1-9.5-4.8-14.7-4.8c-13.6,0-24.7,10.8-24.7,24.1v0.6
	c-3.6-2.3-7.7-3.7-12-4v-22.9c0-2.8-2-5.2-4.8-5.7c-3.1-0.4-5.8,1.8-6.2,4.9c0,0.2,0,0.4,0,0.6v24.9c-9.2,3.6-15.2,12.4-15.3,22.2
	v14.3c-3.1,1.3-6.4,2-9.7,2H153c-0.9,0-1.6-0.7-1.6-1.6l0,0v-74.8c0-11.7,4.5-23,12.6-31.5l32.7-37.3c0.9-1,1.4-2.3,1.4-3.6V53.4
	c0-3-2.5-5.5-5.5-5.5l0,0l0,0c-3.1,0-5.5,2.5-5.6,5.5v35.3l-31.1,35.5c-9.8,10.4-15.4,24.1-15.5,38.3h-13.8
	c-20.3,0-31.9,17.3-35.9,24.8H57.7c-3,0-5.5,2.5-5.5,5.5l0,0l0,0c0,3,2.5,5.5,5.5,5.5c0,0,0,0,0,0H94c2.2,0,4.2-1.3,5.1-3.4
	c0.1-0.2,9.2-21.4,27.4-21.4h13.8v64.3c0,7,5.7,12.7,12.7,12.7h3.2c3.3,0,6.6-0.5,9.7-1.4v114.2c-11.2-0.4-21.8-4.9-29.9-12.6
	l-37.3-32.7c-1-0.9-2.3-1.4-3.6-1.4H57.7c-3,0-5.5,2.5-5.5,5.5l0,0l0,0c0,3,2.5,5.5,5.5,5.5c0,0,0,0,0,0H93l35.6,31.2
	c10.1,9.6,23.4,15.1,37.3,15.5v4.1c-0.1,17.5,6.6,34.4,18.6,47.2v32.8c0,3,2.5,5.5,5.5,5.5l0,0l0,0c3,0,5.5-2.5,5.5-5.5l0,0v-35.1
	c0-1.5-0.6-2.9-1.6-3.9c-10.9-10.9-17-25.6-17-41V223.4c0-7.2,6.2-13,13.7-13s13.7,5.8,13.7,13v77.5c-0.1,2.8,2,5.3,4.8,5.7
	c3.1,0.4,5.8-1.8,6.2-4.9c0-0.2,0-0.4,0-0.6v-98.3c0-7.2,6.1-13,13.7-13c7.6,0,13.7,5.8,13.7,13v98.1c-0.1,2.8,2,5.3,4.8,5.7
	c3,0.4,5.8-1.7,6.2-4.8c0-0.2,0-0.5,0-0.7V190.2c0-7.2,6.1-13,13.7-13c7.6,0,13.7,5.8,13.7,13v110.5c-0.1,2.8,2,5.3,4.8,5.7
	c3.1,0.4,5.8-1.8,6.2-4.9c0-0.2,0-0.4,0-0.6v-98.3c0-7.2,6.2-13,13.7-13c7.5,0,13.7,5.9,13.7,13.1v105.4c0,0.2,0,0.4,0,0.7v28.1
	c0,2.8,2,5.2,4.8,5.7c3,0.4,5.8-1.7,6.2-4.8c0-0.2,0-0.5,0-0.7v-38.3c0-13.9,11.2-25.1,25.1-25.1h3.1c0.9,0,1.6,0.7,1.6,1.6v74.8
	c0,11.7-4.5,23-12.6,31.5l-32.7,37.3c-0.9,1-1.4,2.3-1.4,3.6v36.2c0,3,2.5,5.5,5.5,5.5l0,0l0,0c3,0,5.5-2.5,5.5-5.5l0,0v-34.1
	l31.3-35.6c10-10.5,15.5-24.4,15.5-38.9v-6.8h0.8c17.5,0.1,34.4-6.6,47.1-18.6h34.5C457.2,324.6,459.7,322.1,459.7,319.1
	L459.7,319.1L459.7,319.1z"/>
</svg>
