<?xml version="1.0" encoding="utf-8"?>
<!-- Generator: Adobe Illustrator 25.2.0, SVG Export Plug-In . SVG Version: 6.00 Build 0)  -->
<svg version="1.1" id="Layer_1" xmlns="http://www.w3.org/2000/svg" xmlns:xlink="http://www.w3.org/1999/xlink" x="0px" y="0px"
	 viewBox="0 0 48 48" style="enable-background:new 0 0 48 48;" xml:space="preserve">
<g id="Expanded">
	<g>
		<g>
			<path d="M36.7,33H11.3c-0.4,0-0.7-0.3-0.7-0.7V15.8c0-0.4,0.3-0.7,0.7-0.7h2.2v1.5H12v15H36v-3h1.5v3.7
				C37.5,32.6,37.1,33,36.7,33z"/>
		</g>
		<g>
			<path d="M41.2,27H15.8c-0.4,0-0.7-0.3-0.7-0.7V9.8C15,9.4,15.4,9,15.8,9h25.4C41.6,9,42,9.4,42,9.8v16.5C42,26.7,41.6,27,41.2,27
				z M16.5,25.5h23.9v-15H16.5V25.5z"/>
		</g>
		<g>
			<path d="M32.2,39H6.8C6.4,39,6,38.6,6,38.2V21.8C6,21.3,6.4,21,6.8,21H9v1.5H7.5v15h23.9v-3H33v3.7C33,38.6,32.6,39,32.2,39z"/>
		</g>
	</g>
</g>
</svg>
