<?xml version="1.0" encoding="utf-8"?>
<!-- Generator: Adobe Illustrator 25.2.0, SVG Export Plug-In . SVG Version: 6.00 Build 0)  -->
<svg version="1.1" id="Layer_1" xmlns="http://www.w3.org/2000/svg" xmlns:xlink="http://www.w3.org/1999/xlink" x="0px" y="0px"
	 viewBox="0 0 80 75" style="enable-background:new 0 0 80 75;" xml:space="preserve">
<g id="Layer_2_1_">
	<g id="Layer_3">
		<path d="M51.3,14.6V9.7h-2.5v4.9h-7.1V9.7h-2.5v4.9h-7.7V9.7h-2.5v4.9H10.8v50.7h58.4V14.6H51.3z M28.8,17.1v4.8h2.5V17h7.8v4.9
			h2.5V17h7.1v4.9h2.5V17h15.3v37.4H13.3V17.1H28.8z M13.3,62.7V57h53.4v5.7H13.3z"/>
		<rect x="25.3" y="31.2" width="4.9" height="4.9"/>
		<rect x="37.6" y="31.2" width="4.9" height="4.9"/>
		<rect x="49.9" y="31.2" width="4.9" height="4.9"/>
		<rect x="25.3" y="43.5" width="4.9" height="4.9"/>
		<rect x="37.6" y="43.5" width="4.9" height="4.9"/>
		<rect x="49.9" y="43.5" width="4.9" height="4.9"/>
	</g>
</g>
</svg>
