<svg id="Layer_1" data-name="Layer 1" xmlns="http://www.w3.org/2000/svg" viewBox="0 0 1008 612"><defs><style>.cls-1{fill:#292728;}.cls-2{fill:#fff;}</style></defs><rect class="cls-1" y="-0.37" width="1008" height="612.37"/><path class="cls-2" d="M510.29,198.44A107.37,107.37,0,1,0,586.8,381.12a9.26,9.26,0,0,1-5.82-2.5l2.64-3.86a5.2,5.2,0,0,0,3.66,1.7,2.15,2.15,0,0,0,2.22-2.31c0-1.48-1.06-2.22-3-3.18-2.48-1.22-4.53-2.76-4.53-6.56a6.77,6.77,0,0,1,7-7.19,7.76,7.76,0,0,1,5.82,2.28l-2.67,3.79a3.93,3.93,0,0,0-3-1.41,2.12,2.12,0,0,0-2.24,2.34c0,1.41,1,2,2.79,3s4.18,2.3,4.71,5.33a107.34,107.34,0,0,0-84.11-174.07ZM447.53,317l-8,8.92v.06h0v22.67H424.43V274.24h15.14v32.51l27.92-32.51h18.28L447.56,317Zm21.33,31.66-18.1-26.87,10.15-11.33,26.14,38.2Zm23.39-74.38h28.12c16.42,0,26.35,10.52,26.35,25.71v.22c0,17.21-12.39,26.14-27.83,26.14H513V311.75h6.38c7.57,0,12-4.89,12-11.27v-.21c0-7.33-4.72-11.26-12.29-11.26h-11.7v0h0l0,59.58H492.25Zm28,106.34-.93-4.15h-5.11l-.93,4.15H502.4L497.54,370h-.09v10.58h-5.17V357.83h5.17v9.48h.09l4.7-9.48H508l-5.85,10.41,6.05,12,5.45-22.44h6.46l5.49,22.75Zm22-8.42c0,5-2.21,9-7.77,9s-7.62-4-7.62-9V357.83H532v13.88c0,2.57.51,4.53,2.53,4.53s2.54-2,2.54-4.53V357.83h5.14Zm19,8.42H555.7l-5.27-13.85h-.1l.13,13.85h-4.59V357.83h5.65l5.24,14h.09l-.09-14h4.43Zm14.14,0-.93-4.15h-5.11l-.93,4.15h-5.14l5.52-22.75h6.46l5.49,22.75ZM600,319.83H573.24V305H600Zm-26.74-30.72h-6.09l0,59.51H552V274.24h52.4v14.87Zm-1.46,73.67-1.92,9.67h3.88l-1.83-9.67Zm-55.1,0-1.93,9.67h3.89l-1.83-9.67Z"/><path class="cls-2" d="M611.18,372.29H609v8.29h-5.05V357.83H611c3.25,0,7,1.7,7,7.13C618,370,614.56,372.29,611.18,372.29Zm-.57-10.13H609v5.95h1.64c1.41,0,2.53-1.09,2.53-3.05S612,362.16,610.61,362.16Z"/><path class="cls-2" d="M620.69,380.58V357.83h5.18v22.75Z"/><path class="cls-2" d="M640,380.58l-.93-4.15H634l-.93,4.15h-5.14l5.53-22.75h6.45l5.5,22.75Zm-3.4-17.8h-.13l-1.93,9.67h3.89Z"/><path class="cls-2" d="M657.19,380.58l-5.27-13.85h-.09l.13,13.85h-4.6V357.83H653l5.24,14h.1l-.1-14h4.44v22.75Z"/><path class="cls-2" d="M674.54,381.19c-5.4,0-8.74-4.82-8.74-12.05s3.28-11.92,8.74-11.92,8.74,4.72,8.74,11.92S679.94,381.19,674.54,381.19Zm0-19c-2.34,0-3.47,3-3.47,6.94s1.13,7,3.47,7,3.47-3.05,3.47-7S676.85,362.2,674.54,362.2Z"/><path class="cls-2" d="M698,362.49v4.62h5.43v4.4H698v9.07h-5.21V357.83h11.09v4.66Z"/><path class="cls-2" d="M706.7,380.58V357.83h11v4.53h-6.07v4.46h5.59v4.24h-5.59V376h6.46v4.6Z"/><path class="cls-2" d="M730.51,363.29a3.93,3.93,0,0,0-3-1.41,2.13,2.13,0,0,0-2.25,2.34c0,1.41,1,2,2.8,3,2.09,1,4.82,2.66,4.82,6.62,0,4.91-3.34,7.39-7.07,7.39a9.27,9.27,0,0,1-6.46-2.57l2.64-3.86a5.2,5.2,0,0,0,3.66,1.7,2.15,2.15,0,0,0,2.22-2.31c0-1.48-1.06-2.22-3-3.18-2.48-1.22-4.53-2.76-4.53-6.56a6.77,6.77,0,0,1,7-7.19,7.77,7.77,0,0,1,5.82,2.28Z"/><path class="cls-2" d="M742.88,362.2v18.38h-5V362.2h-4.17v-4.37h13.4v4.37Z"/><path class="cls-2" d="M379,274.71c-.23-.72-.51-1.44-.76-2.16l-.41,0-.77.84-.47,0v-8h-.42l-1.35,3-.74-1.26-.36.06-.24,1-.37,0c-.08-.72-.15-1.44-.22-2.16-.58.23-.66.54-1,.64-2,.6-1.67,1.76-1.95,2.58-.67,2-.5,4.08-.72,6.13a2.44,2.44,0,0,1-.5.87c-.36.52-.95,1-1.08,1.55-.42,1.72,0,3.43-.61,5.19-.86,2.52-.61,5.15-.73,7.73-.09,1.83-.07,3.66,0,5.49,0,.3,0,.58,0,.87l-.41.53v2.31l.46-.34c3.1-2.34,6.23-4.58,9.21-6.93,1.33-1,2.63-2.1,3.92-3.15q0-4.59.08-9.18l.75-1a2.91,2.91,0,0,0,0-.31A35.48,35.48,0,0,0,379,274.71Zm11.54,5.44,5.53-4.68-4.61,0c-1.07,0-1.51.34-1.32,1.51S390.48,279.08,390.58,280.15ZM360.1,303.7a2.57,2.57,0,0,1-.09-.29c-.5-2.12.4-3-.72-2.89-.45,1.72-1.37,1-2,2.32a16.57,16.57,0,0,0-.6,3.49,7.57,7.57,0,0,1-1-3.7c0-1.64-.3-1.31-.84-1.58,0,1.56-.08,2.92-.11,4.28-.6-.64-.4-2-1.14-2.41-1-.56-.28-1.87-.92-3.17-.3,1,0,3.17-.56,3.4-.7.31-.51-.07-.72-1.55-.17-1.23-.51-1-.44-2.73.06-1.49-.5-1.85-.64-3.06a8.69,8.69,0,0,0-.52,3.32c-.05,1.21-1.08.91-1.46,1,0,1.51.32,5.56-.31,6.17l-.09.06a14.72,14.72,0,0,0-.11-2.81c-.07.29-.14.57-.24.86a19.56,19.56,0,0,1-.64,2.06.86.86,0,0,1-.2-.13c-.26-.28-.25-2.55-.28-3.15a9.16,9.16,0,0,0-1,4,11.57,11.57,0,0,1-5.19-.19c-.16-2.34.56-4.79-1.6-7.19-.41,2.55-.79,4.91-1.21,7.5a31,31,0,0,1-1-4.5c-.16-2.25,0-4.5-.05-6.74a4.26,4.26,0,0,0-.25-1l-.63,0v7.83l-.57,0-.63-1.48a4.55,4.55,0,0,0-.37,1.78,9.67,9.67,0,0,1-.53,1.6c-.44,1.22-.44,1.21-1,1.28a7.75,7.75,0,0,1-.65-1.68c-.48-4.28.2-8.55-.62-12.85-1-5.11.16-10.3-.66-15.46-.46-2.88-.08-5.81-.08-8.72,0-.2.1-.53,0-.58-1.57-.56-.67-1.48-.79-2.22a21.47,21.47,0,0,1-.06-2.78,4.64,4.64,0,0,0-.31-1,13.55,13.55,0,0,0-.37,3.31c-.06,1-.26,2.07-.4,3.1l-.37,0V265.8l-.53,0-.72,8.81a5.5,5.5,0,0,1-.77-2.39c-.2-1.71.4-3.46-.92-5.12a5.15,5.15,0,0,1-.63-1.73,24.23,24.23,0,0,0-.34,4.31c0,.56.47,1.33-1.13,1.46-.1,0-.18.28-.2.43-.4,2.71.42,5.41-.75,8.16-1,2.34.07,4.86-.71,7.35s-.06,5-.2,7.52-.56,4.92-.84,7.38a7,7,0,0,1,0,1.58c-.3.9-.23,1.83-1.18,2.67a4.88,4.88,0,0,1-2,1.13v-2l-.37.09c-.19-.33-.49-.63-.51-.93-.06-1.06,0-2.11,0-3.16,0-.39.18-.83-.14-1.16-.94-1-.64-1.95-.67-2.94,0-1.27,0-2.55,0-3.83a2.42,2.42,0,0,0-.27-.78,12.19,12.19,0,0,0-.32,1.77h0c0,.29-.07.59-.09.88.51.37.43.47,0,.39,0,.7,0,1.4-.05,2.1s0,1.39,0,2.11a4.5,4.5,0,0,0-.59-.67,6.7,6.7,0,0,0-.52,3.15c-.83-1.2.05-2.33-.72-3.33-.94-1.24.1-2.58-.91-3.83a.94.94,0,0,0-.49.74c0,1.11,0,2.21,0,3.32a11.27,11.27,0,0,1-.16,3,8.6,8.6,0,0,0-.19-1.13l-.43,0-.49,1-.69-.71-.15,0c-.13.11-.39.24-.36.34.44,1.63-.84,3.16-1.9,4.78a3.41,3.41,0,0,1-.31-.95c-.12-2.93.45-5.94-.45-8.79-1.16-3.64-.49-7.31-1-11-.39-2.84.05-5.78-1.07-8.51s-.4-5.27-1-7.87c0,0-.11-.08-.25-.17l-.94.44h-.47l-.4-11.3-.67,0c0,1.06.07,2.12.11,3.17.06,1.43.19,2.86.16,4.28-.05,2.4-.08,4.8-.37,7.2a10.24,10.24,0,0,1-1.4,2.89.23.23,0,0,0,0,.16c.64,1.91-.68,3.82-.7,5.73,0,3.26.28,6.54-.38,9.79-.32,1.62-.15,3.21-.48,4.8-.12.63-.86,1.23-1.27,1.85a1.31,1.31,0,0,0-.2.7c0,.89.65,1.92-.05,2.64-1.2,1.25-.29,2.4-.62,3.58a8.42,8.42,0,0,1-1,2.55l-.62-.79c-.3.15-.61.35-1,.54v-.5l-.19.06c.06,0,0-.14,0-.11-.49-1.35-.33-3.07-.62-4.49-.32-1.59.2-3.28-.2-4.87a11.88,11.88,0,0,0-.16,1.32h0c-.15,1.87.06,4.27-.26,6.46-1.38-1.44-.31-4.23-1.23-5.87-.59.62-.26,2.23-.26,3,0,1.21.13,2.49-.64,3.53l0-.06v4.38l-.57.18-.88-2.34h-.17l-.33,2.11h-.58v-7.55h-.69v4.51h-.4c-.06-.08-.16-.15-.17-.22a32.09,32.09,0,0,0-.61-5.75c-.64-2.35,0-4.75-.23-7.12s1-4.66-.78-7c-.31-.41.07-.91.08-1.37a.78.78,0,0,0-.29-.47c-.16-.16-.58-.31-.59-.47,0-1.27,0-2.55,0-3.82v-2.81h-.31l-.61.95-.45,0c0-.37-.09-.74-.13-1.11h-.67v5.51H280v-2.32h-.62v8h-.45c-1-1.39.16-3-2.07-4.34,0,2.09,0,4.11,0,6.13a.94.94,0,0,1-.14.48c-1.33,0-.72.38-.72.61,0,2.48,0,5,0,7.44a4.61,4.61,0,0,1-.15.53,3.25,3.25,0,0,0,0,1v1a7.5,7.5,0,0,1-.24-2.25,4.09,4.09,0,0,0-.08-1.32,7.08,7.08,0,0,1-.27-2.62c0-.89,0-1.78,0-2.67a2.41,2.41,0,0,0-.15-.63.15.15,0,0,0-.13-.06c-.09,0-.26,0-.27.08a3.22,3.22,0,0,0-.18.79,8.2,8.2,0,0,1-.06,2,12.62,12.62,0,0,0-.28,3.46,3.64,3.64,0,0,1-.08,1.15,6.38,6.38,0,0,0-.27,2.45,26.68,26.68,0,0,0,0,2.83,5.62,5.62,0,0,1-1.19,4.1h-4.09c-1.44,0,.44-.08-1,0a13.71,13.71,0,0,0-4.15.3.48.48,0,0,0,.37.3q.75,0,1.5.06c3,0,2.66.06,5.66.07.61,0,1.21,0,1.82,0,.17.49.3.91.45,1.32a8.3,8.3,0,0,1,.62,3.72,4.55,4.55,0,0,0,0,1.65,10.28,10.28,0,0,1,.3,3.12,2.19,2.19,0,0,0,.07.82,5.25,5.25,0,0,1,.26,2.29c0,1.28,0,2.55,0,3.83a3.78,3.78,0,0,0,.61,2.09,21.76,21.76,0,0,0,.14-2.66c0-1.55-.05-3.11,0-4.66s.27-3.06.42-4.58a6.79,6.79,0,0,1,.16,1.42,7.68,7.68,0,0,0,.15,1.81c0,.13.06.25.09.37a14,14,0,0,0,.19,3.64v.62c0,.2.06.38.39.32,0,0,0,0,0,.06,1.21,2-.1,4.22.85,6.37,1.1,2.52-.18,5.11.8,7.71,1.05,2.78.18,5.65.59,8.49.58,3.95.16,7.92.18,11.88a3.34,3.34,0,0,0,.17.73l.52,0c0-.23,0-.47,0-.71,0-2.88-.06-5.77.05-8.65,0-.53.71-1.06,1.09-1.59l.6,0v7.53h.73c0-.42,0-.85,0-1.28.18-4,.26-7.93.59-11.89.31-3.75-.84-7.51.66-11.26.81-2-.09-4.07.75-6.15,1.1-2.72-.47-5.55.88-8.32.39-.78.08-1.62.12-2.43,0-.13.13-.26.21-.39l.48,0v9.95h.41a5.53,5.53,0,0,0,.28-1.17c0-3.26,0-6.51,0-9.77a17.36,17.36,0,0,1,0-2c0-.35.29-.71,1.44-.72.58,0,.84.08,1,.21v.39a1.18,1.18,0,0,1,.11-.19c0,.07,0,.15.05.23l0,.07a25.17,25.17,0,0,1,.5,3.86c0,.76-.51,3.54.42,3.83.24-1.61-.89-6.11,1.07-6.75.27,1.37,0,2.76.35,4.12.69-1.23.4-3.88.66-5.36q0-.36.45-.33v-2.06a5.68,5.68,0,0,1,1.6.75c1,.65.93,1.41,1.25,2.13.18.41,0,.86.09,1.29.34,2,.83,4,1,6s-.41,4.17.42,6.12-.14,4.09.92,6c1.25,2.2.5,4.43,1,6.62,0,.12.11.34.21.34,1.6.05,1.14.7,1.18,1.16a15.54,15.54,0,0,0,.45,3.49,3.76,3.76,0,0,1,.58-1.43c1.28-1.4.63-2.8.77-4.21a4.08,4.08,0,0,1,.71-2c.32,2.39.64,4.77,1,7.16l.53,0,0-1.13.37,0c.17.83.39,1.67.49,2.51a9.15,9.15,0,0,0,.46,2.68,3.14,3.14,0,0,0,.28-.85,15.5,15.5,0,0,1,0-2.26c.11-.61-.82-1.33.73-1.84.14-.05,0-.31,0-.47-.08-2.37-.54-4.75-.17-7.11.67-4.23-.6-8.42.22-12.61.7-3.54-.1-7,.26-10.49a5.42,5.42,0,0,1,.6-1.39c.56,0,.56,0,1,1a6.53,6.53,0,0,1,.57,1.28,3.24,3.24,0,0,0,.42,1.44c.2-.41.39-.82.59-1.22h.2a6.69,6.69,0,0,0,.44,2l.15,4.4h.43c0,1,0,2.06,0,3.09,0,.29-.37.68.78.92a6.26,6.26,0,0,0,.2-.93c0-1.95,0-3.89,0-5.83a5.42,5.42,0,0,1,.09-1.33c.1-.35.47-.64,1.23-.87.07.32.15.64.23,1a5.43,5.43,0,0,0,.51-.6,2.58,2.58,0,0,1,.17.72c0,1.11,0,2.22,0,3.32a4.82,4.82,0,0,0,.32,1c.23-.28.39-.38.38-.48a20.09,20.09,0,0,1,.9-6.76c.06-.24.18-.46.89-.45V309.6a15.93,15.93,0,0,1,1.47.86l.58-1a11.56,11.56,0,0,1,1.13,3.08c.37,1.44-.5,2.88.75,4.37.72.85.12,2.14.15,3.23a1.66,1.66,0,0,0,.22.85c.43.74,1.19,1.45,1.33,2.21.39,1.94.27,3.9.65,5.87a40.92,40.92,0,0,1,.62,7.07l6.61-6.35.4-.39a29.32,29.32,0,0,1,.54-7c.8-3.53.13-7.19.14-10.8a5.76,5.76,0,0,1,.28-1.18c1.12,1.94,2.45,3.76,2.07,5.79,0,.12.24.26.37.39a.5.5,0,0,0,.15,0l.66-.9.53,1.16.43,0c.35-1.91-.19-4,2.3-5.75.42,2.81-.3,5.43.77,8a3.38,3.38,0,0,0,.92-1.94c.07-2.34,0-4.69,0-7,0-.65,1.48-1.43,2.42-1.26s1.71.34,2.59.53a2.29,2.29,0,0,1,0,.25c-.21,2.69.73.83.77,2.77a8.36,8.36,0,0,0,.27,3l.29-.26v-2.46l1.41-.34c0,.51.09,1,.13,1.48,4.64-4,9.46-7.75,14.32-11.39l-.42-.12A10.7,10.7,0,0,0,360.1,303.7Zm-9.94,34.22c.67-1,.12-13.64.22-16.71l-1.07.93a12.33,12.33,0,0,0,0,1.87c-.06,3.25-.31,11.88-.2,13.1.36,3.95.29,19.42.2,23.38,0,1.45.65,2.85.14,4.27-.18.5-.24.5-.25.47a2.26,2.26,0,0,1,0,.56c0,.34.1.67.1,1,.06,3.42.07,2.67.09,6.09,0,3.84-.05,5.19-.05,9,0,3.26,0,6.51,0,9.21,1-6.32.94-10.75.82-17.67-.07-3.59-.25-3-.4-6.61,0-1.1,0,.3,0-.8a1.9,1.9,0,0,1,.3-1.12c.7-.82-.12-1.75-.12-2.74,0-5.09,0-14.59.06-24.5A.67.67,0,0,0,350.16,337.92Zm52.36-62.47H398.8l-8,7.35c.38,7-.33,14.08-.43,21.12-.1,7.2-.27,14.4-.34,21.6-.06,5.89,0,11.78,0,17.67a2.68,2.68,0,0,0,1.36,2.5,4,4,0,0,1,2,3.68c0,6.62.05,33.17.28,39.79.19,5.9.46,2.66.82,8.56.12,1.82.38,3.63.56,5.33-.08-3.7-.14-7.42-.23-11.14-.05-2.55,0,4.06-.05,1.52-.08-7.61-.14-35.14-.16-42.75a2.06,2.06,0,0,1,.55-1.25,12.7,12.7,0,0,1,1.9-1.84,2.76,2.76,0,0,1,1.49-.52c1.18-.06,2.37,0,3.55,0,.65,0,1-.19,1.11-.94a58.11,58.11,0,0,0,.7-5.84c.15-13.83.22-27.65.29-41.48q.06-10.82.06-21.61C404.24,275.49,404.16,275.45,402.52,275.45Zm-33,27.66q-1.79,1.81-3.59,3.61c0,.76,0,1.51,0,2.26.07,10.91.33,21.82.61,32.73a9.76,9.76,0,0,0,1.14,4,3.29,3.29,0,0,0,2.05,1.17c.86.21,1.14.51.95,1.41a2.69,2.69,0,0,0,.05,1.67c.79,1.24.53,2.54.56,3.88.1,5.06-.08-2.13.83,2.89.25,1.4.12,18.46.12,19.9l1.06,20.77c0-3.89,0-7.77,0-11.66,0-5-.21-17.95-.63-25.9.12-3.95.26-9,.34-10.83a1.36,1.36,0,0,1,1.12-1.51c2.11-.76,3-2.75,3.47-4.78a40.92,40.92,0,0,0,1.07-8.15c.11-8.4.24-16.82-.11-25.2-.23-5.43,1-10.7.95-16.08Q374.55,298,369.55,303.11ZM325,348.06a.35.35,0,0,0,.05.2c.41.93,1,1.85,1.32,2.79,0,1.51.08,3.18.15,5.25.12,3.7.38,9.56.65,14.86,0,.77,0,1.39,0,1.73v3.89h.31c.05,1,.1,1.88.15,2.68.12,1.81.38,3.62.56,5.32-.08-3.7-.14-2.72-.23-6.45a20.07,20.07,0,0,0-.12-2.09V355.84l.47,0,.95.5c.14-.12.24-.17.24-.22.49-3.22-.28-6.42.7-9.69.93-3.08.58-6.31.72-9.48-2.25,1.74-4.48,3.49-6.68,5.23C324.6,344.11,325.51,346.05,325,348.06Z"/></svg>