<svg xmlns="http://www.w3.org/2000/svg" viewBox="0 0 1200 900"><defs><style>.cls-1,.cls-16,.cls-17,.cls-18{fill:none;}.cls-2{fill:#e46c38;}.cls-3{fill:#f79c3b;}.cls-4{fill:#f49132;}.cls-5{fill:#4e4e50;}.cls-6{fill:#fcb040;}.cls-7{fill:#48484a;}.cls-8{fill:#29292a;}.cls-9{fill:#ea5623;}.cls-10{fill:#353537;}.cls-11{fill:#131313;}.cls-12{fill:#df622e;}.cls-13{fill:#e37135;}.cls-14{fill:#e15a27;}.cls-15{fill:#1d1819;}.cls-16,.cls-17,.cls-18{stroke:#000;stroke-miterlimit:10;}.cls-16{stroke-width:6px;}.cls-18{stroke-width:5px;}.cls-19{font-size:60.53px;font-family:TimesNewRomanPSMT, Times New Roman;}</style></defs><g id="Layer_2" data-name="Layer 2"><g id="Layer_2-2" data-name="Layer 2"><rect class="cls-1" width="1200" height="900"/></g><g id="Layer_3" data-name="Layer 3"><path d="M522.3,142.31c47.22-1.44,94.67-1.66,142,0,19.76,25.43,32.72,55.83,50,83.09,6.68,13.9,18.37,26.37,21,41.65-18.27,33.66-38.29,66.37-57.11,99.75-7.22,11.09-2.31,24.72-2.42,36.91-10.82-5.68-20.53-16.16-33.6-15.55-38.46-.72-77,1.1-115.31-.72-15.62-10.32-20.42-31.67-31.4-46.57,8.39-1.87,16.77-3.86,25.16-5.9,4.19,8.72,8.55,17.32,12.8,26,30.18-7.78,58.37-23.18,79.78-46.07a212.63,212.63,0,0,0,18.32-24.33,166.85,166.85,0,0,0,23.34-86.68c-1.33-13.08-3.43-26-5.85-38.95-9.6,0-19.26,0-28.91.11,1.21,6.73,2.48,13.52,3.58,20.3,4.31,26.93,3.7,54.9-4.8,81-9.71-9.93-19.14-20-28.41-30.34,8.33-22.51,7.67-46.79,5.19-70.23-9.94-.28-19.92-.45-29.85-.67,2,18.38,4,36.86,3.36,55.45q-14.48-9.18-28.85-18.43c1.65-13.46,1.54-27,.88-40.6a207.16,207.16,0,0,0-21.35,32.55c-7.67-2.54-15.39-5-23.06-7.56C505.3,171.82,514,157.15,522.3,142.31Zm159.44,76c-1.54,30.18,2.49,62.62-12.63,90.15-15.83,27.42-46.79,39.12-71.89,55.95,18.26.11,36.86,2,54.95-1.38,20.75-31.73,38.13-65.66,57.49-98.32C700.78,249,692.23,233,681.74,218.28Z"/><path d="M261.22,540.38c-9-12.42-5.3-33.16,11.86-35.15,17.49.94,34.65,9.77,47.45,21.46C302.82,537.62,282.35,550.91,261.22,540.38Zm8.22-26.21c-12.19,8.61-2.09,19.7,7.45,24.72,10-4.2,20.08-8.5,29.74-13.47C294.82,520.73,282.79,510.75,269.44,514.17Z"/><path d="M658.52,552.57c22.18,3.31,9.16-27.86,27.58-29.52,13.91-4.52,28.31,14,19.87,26-5.19,13.13-27.37,2.65-27.15,20l-3.59-.23C673.69,559.8,665.36,556.76,658.52,552.57Zm21.57-1.44,15.89-2.2c9.54-6.35,0-14.68-4-21C683.4,532.93,680.37,541.53,680.09,551.13Z"/><path class="cls-2" d="M519.76,194.06a207.16,207.16,0,0,1,21.35-32.55c.66,13.57.77,27.14-.88,40.6a205,205,0,0,1-18.37,35.76A250,250,0,0,1,501,257.29c-6.9,3.8-14,7.17-21.08,10.59,4-8.61,8-17.27,12.47-25.66C501.88,226.39,511.21,210.45,519.76,194.06Z"/><path class="cls-3" d="M565.72,165.09c9.93.22,19.91.39,29.85.67,2.48,23.44,3.14,47.72-5.19,70.23-6.35,14.46-15,27.7-24.28,40.39l-1.93,2.2c-6.29-4.69-12.52-9.43-18.76-14.12a95.27,95.27,0,0,0,21-27.26c1.05-5.57,1.94-11.09,2.65-16.66C569.69,202,567.7,183.47,565.72,165.09Z"/><path class="cls-4" d="M620,165c9.65-.06,19.31-.06,28.91-.11,2.42,12.91,4.52,25.87,5.85,38.95-10.38-6.18-20.8-12.41-31.18-18.54C622.49,178.56,621.22,171.77,620,165Z"/><path class="cls-5" d="M480.2,215.3c4.74-10,10.76-19.37,16.5-28.8,7.67,2.54,15.39,5,23.06,7.56-8.55,16.39-17.88,32.33-27.37,48.16C487.37,233.73,482.9,224.85,480.2,215.3Z"/><path class="cls-6" d="M623.59,185.34c10.38,6.13,20.8,12.36,31.18,18.54a166.85,166.85,0,0,1-23.34,86.68l-17.38-14.74c1.65-3.09,3.25-6.29,4.74-9.49C627.29,240.24,627.9,212.27,623.59,185.34Z"/><path class="cls-7" d="M521.86,237.87a205,205,0,0,0,18.37-35.76q14.4,9.27,28.85,18.43c-.71,5.57-1.6,11.09-2.65,16.66C551.87,241.89,536.2,245.92,521.86,237.87Z"/><path class="cls-8" d="M457.86,253.09c7.33-12.69,15.28-25,22.34-37.79,2.7,9.55,7.17,18.43,12.19,26.92-4.47,8.39-8.44,17-12.47,25.66,7.07-3.42,14.18-6.79,21.08-10.59,9,5.57,18,11.09,27,16.66-11.47,5.46-23.22,10.32-35,15.12C477.5,281.29,460.23,272.57,457.86,253.09Z"/><path class="cls-8" d="M566.1,276.38c9.27-12.69,17.93-25.93,24.28-40.39,9.27,10.32,18.7,20.41,28.41,30.34-1.49,3.2-3.09,6.4-4.74,9.49l-.22.39C597.94,273.51,579,289.29,566.1,276.38Z"/><path class="cls-9" d="M681.74,218.28c10.49,14.73,19,30.68,27.92,46.4-19.36,32.66-36.74,66.59-57.49,98.32-18.09,3.42-36.69,1.49-54.95,1.38,25.1-16.83,56.06-28.53,71.89-55.95C684.23,280.9,680.2,248.46,681.74,218.28Z"/><path class="cls-10" d="M501,257.29a250,250,0,0,0,20.86-19.42c14.34,8,30,4,44.57-.67a95.27,95.27,0,0,1-21,27.26C539.73,267.82,533.88,271,528,274,519,268.38,510,262.86,501,257.29Z"/><path class="cls-11" d="M456.64,273.18c-5.18-6.46-1.76-13.63,1.22-20.09,2.37,19.48,19.64,28.2,35.2,36,4.85,8.22,9.43,16.6,15.39,24.11a134.87,134.87,0,0,0,55.72-34.6l1.93-2.2c12.91,12.91,31.84-2.87,47.73-.17A136.07,136.07,0,0,1,585.14,306a220.45,220.45,0,0,1-64.61,29c-8.39,2-16.77,4-25.16,5.9C482.46,318.25,468.83,296.07,456.64,273.18Z"/><path class="cls-12" d="M528,274c5.85-3,11.7-6.13,17.38-9.49,6.24,4.69,12.47,9.43,18.76,14.12a134.87,134.87,0,0,1-55.72,34.6c-6-7.51-10.54-15.89-15.39-24.11C504.81,284.27,516.56,279.41,528,274Z"/><path class="cls-13" d="M613.83,276.21l.22-.39,17.38,14.74a212.63,212.63,0,0,1-18.32,24.33q-14-4.47-28-8.89A136.07,136.07,0,0,0,613.83,276.21Z"/><path class="cls-14" d="M520.53,335a220.45,220.45,0,0,0,64.61-29q14,4.39,28,8.89c-21.41,22.89-49.6,38.29-79.78,46.07C529.08,352.29,524.72,343.69,520.53,335Z"/><path class="cls-15" d="M332.89,385.12c26.92-.11,56.94,3.48,77.68,22.29,13.35,12.3,11.92,32.33,4.14,47.23-14.9,29.57-41.1,51.14-65.76,72.27,31.28,21.47,68.8,48.83,70.06,90.49.72,32.16-28.74,51.64-53.62,65.49,27.91,1,53.57-13.74,72.55-33.22,0-18.87-.28-37.74.33-56.55,2,1.16,6,3.48,8.05,4.69,3.48,26.15-2.86,53.13,3.59,78.9,12.08,17.1,42.43,8.88,46.51-10.54-4.36-17.88-8.94-35.75-10.48-54.18,2.48-.83,7.45-2.54,9.93-3.37,1,10.6-5.13,25.16,5.35,33,1.77-12.31,2.65-24.72,3.31-37.08-3.42-3.42-6.79-6.9-10.15-10.37,13.08-5.9,20.14,7.34,20.58,17.05-.33,17.43-5.68,34.26-8.33,51.36,0,12.31,10.15,20.91,20,26.54,13.24-15.56,14-36.74,18.26-55.78,6.84-42.15-4.74-85.3,2.76-127.45.94-13.51,21.13-24.27,27.42-8.38C586.85,549.64,549.22,598,556,650c2.93,24.28,29.52,41.71,53,33.77,27.86-7.06,39-47.89,17.21-67.42-11.25-13.19-29.74-12.69-45.52-12,.78-12.08,14.18-10.1,22.85-9.54,20.57,2.59,38.28,18.81,41.87,39.39,5.68,20-6,39.12-18.26,53.9,16.66.66,35.86-6.45,40.94-23.94,4.69-22.07,3.36-44.91,6-67.2l6.51-4c4.14,27.59-5.13,57.44,6.73,83.54,4,11.8,21.57,12.41,28,2.59,25.54-52.19,10.43-111.12,14.4-166.62.16-4.86,4.85-3.92,8.11-3a352.08,352.08,0,0,0,.05,76.52c6.52-29.4,21-62,8.28-91.53l-6.4,12.64a81.07,81.07,0,0,1-3.64-18.82c8.22,2.26,22.84.66,23.61,12.91,10.82,59.37-37.18,115.7-15.22,174.51,6.23,13.47,22.29,10.15,33.87,7.62-7.78-15-15.56-31.51-12.08-48.94,2.7-24.94,29-40.72,52.52-39.5,7.34-.06,11.92,3.8,13.74,11.64-28.36-11.92-65.21,12.25-58,44.3,2.1,32.61,45.68,45.52,67,21.57-4.69-18.48-8.06-37.79,0-55.89,7.34-.27,18.49-3,21.8,6.24,4,17.87-4,35-12.14,50.43,5.52,7.11,12.25,15.44,22.23,10.31-.11-7.11,0-14.18.06-21.24,13,9.88,25.76,25.88,44.14,22,13.13-1.32,20.35-15.44,16.22-27.47-9.05-12.19-27.64-12-36-25-12.8-17.21,10-45.9,29.13-34.26,8.88,3.7,10.92,14.12,6.18,21.79A75.48,75.48,0,0,0,918,602c-8.38,3.92-19.47,13.29-13.85,23.56,6.79,12.24,23.78,11.42,32.67,21.62,13.9,13.91,4.69,40-13.58,44.8-13.84,5.85-27.58-2.53-39.61-8.49-6.46,4.08-11.92,13-20.58,11-8.22-1.05-12.47-9.43-18.32-14.23-16.55,15.39-40,17.65-59.25,6-10.65,6.4-24.61,13.35-36.36,5.35-10.1-4.52-13.19-15.72-16.88-25.1-4.53,11.36-8.94,25.1-23,27.14-17,7.29-29-8.88-34.54-22.56-10.49,20.58-35.37,30-56.44,19.53-26.71,12.25-58.49-1.66-69.36-28.47-2.53,7.17-4.91,14.46-6.89,21.85-5.19,3.64-8.66,11.42-15.95,10.87-12.08,2.81-18-9.66-24.44-17.05-11.58,14.29-33.49,23.5-50.2,12.47-9.77-5.24-11.87-16.77-13.69-26.59-27.31,27.53-67.69,32.93-104.66,29.73C332.12,590.69,332.56,487.91,332.89,385.12Zm8.94,134.12c17.71-14.73,34.76-30.34,49.54-48.11,10.38-14.23,23.78-32.16,17-50.64-13.52-22.68-43-24.06-66.21-28.69C341.17,434.28,341.72,476.76,341.83,519.24Zm214,61c5.85-27.81,16.66-57.11,7.73-85.47C543.32,517.48,551.81,552.9,555.84,580.27ZM342.27,533.64c-.33,49.83.11,99.65-.28,149.41,28.36-13,63.4-31.06,67.26-65.65C406.6,578.94,371.73,553.34,342.27,533.64Zm504,117.63c6.29-4.8,7.28-19.14,4.47-27C841.8,627.71,843.51,643.55,846.27,651.27Z"/><path class="cls-16" d="M732.67,512.13c0-11.55,1.53-20.89,3.42-20.89"/><path class="cls-16" d="M736.37,491.19c.31,11.55-1,20.93-2.84,21"/><path class="cls-17" d="M733.26,512.13c0-11.55,1.53-20.89,3.42-20.89"/><path class="cls-16" d="M739.64,494.65c-2.07,11.36-5.25,20.28-7.1,20"/><path class="cls-16" d="M490.43,612.81c0-9,2.76-16.34,6.18-16.34"/><path class="cls-18" d="M488.85,613.66c0-9,2.75-16.35,6.15-16.35"/><path class="cls-16" d="M491.92,609.51c3.95-5,5.16-10.65,2.7-12.58"/><path class="cls-17" d="M501.45,596.47c5.66,10.06,8.91,19,7.26,19.88"/><path class="cls-16" d="M497,598.1c0,1.88,3.21,3.4,7.17,3.4"/><text class="cls-19" transform="translate(480.2 758.85)">BITYNAS</text></g></g></svg>