<svg xmlns="http://www.w3.org/2000/svg" viewBox="0 0 1200 900"><defs><style>.cls-1{fill:none;}.cls-2{fill:#12b1a1;}</style></defs><g id="Layer_2" data-name="Layer 2"><g id="Layer_2-2" data-name="Layer 2"><rect class="cls-1" width="1200" height="900"/><path class="cls-2" d="M1054,289.8c3.22,0,6.44,0,9.67,0q0,160.21.07,320.43h-9.66Q1054.15,450,1054,289.8Z"/><path class="cls-2" d="M706.4,313.9a23.86,23.86,0,0,1,20.18,3.91,24.21,24.21,0,0,1,9.63,19.4,23.59,23.59,0,0,1-10.44,19.66,24.06,24.06,0,0,1-25.48.78A23.74,23.74,0,0,1,688.59,335,24.16,24.16,0,0,1,706.4,313.9Z"/><path class="cls-2" d="M617.45,363.1c.16-7.23,0-14.46.07-21.7h35q0,21.41,0,42.8c9.59,0,19.18,0,28.77,0v34.41H652.5c0,19.12,0,38.22,0,57.33-.11,6,.32,13.54,6.19,16.9,7,3.58,15.17,2.15,22.61,1.18,0,10.73,0,21.45,0,32.18A68.74,68.74,0,0,1,650.76,529c-10.42-1.3-20.73-6-27.38-14.32S614,495.52,614.07,485c0-22.14,0-44.28,0-66.42H588.17q0-17.19,0-34.4c6.62,0,13.79.5,19.7-3.1C614.17,377.5,617.3,370.11,617.45,363.1Z"/><path class="cls-2" d="M157.64,401.33c23.08-23.83,62.59-28.18,91-11.77a63.34,63.34,0,0,1,29,38.63q-17.31,5.87-34.64,11.67c-2.23-7-6-13.74-12-18.14-8.59-6.38-20.26-7.32-30.35-4.53a33.87,33.87,0,0,0-21,17.45c-4.45,8.92-5.44,19.27-4.09,29.05,1.27,9,5.27,17.81,12.2,23.86C198.84,497.32,216.13,499,229,492c7.62-4.17,12.86-11.68,15.49-19.84l34,11.34a65.11,65.11,0,0,1-33.87,41.07c-28.74,14-66.34,7.77-88.19-15.86C129,479.91,129.58,429.49,157.64,401.33Z"/><path class="cls-2" d="M320.33,388.13c16.29-9.09,35.94-9.9,53.93-6.48,14.37,2.73,28.35,10.69,35.67,23.71,5.06,8.68,7.12,18.84,7.14,28.82.08,16.17,0,32.35,0,48.53.11,14.93-.62,30,1.7,44.78-11.86,0-23.71,0-35.57,0a107.14,107.14,0,0,1-1.4-17,46.36,46.36,0,0,1-28.77,19.6c-14,3-29.29,1.52-41.7-5.86a42.39,42.39,0,0,1-19.95-27.35c-2.51-12.29.25-25.94,8.65-35.48,7.93-9.14,19.66-14.1,31.4-16.1,12.67-2,25.39-3.71,38.05-5.77,3.84-.61,8.05-2.59,9.19-6.63a16.48,16.48,0,0,0-6.34-17.08c-5.51-4.06-12.64-5.05-19.32-4.75-7.44.32-15,3.39-19.69,9.3-3.32,3.91-4.87,8.92-5.65,13.91-11.47-2.45-22.94-4.83-34.39-7.32C295.28,410.6,306,396,320.33,388.13Zm26.91,79.94c-4.83.73-9.76,2.38-13.27,5.91-4.65,4.56-5.81,11.94-3.68,17.95S338.68,502,345,502.51c10.28.87,21.86-2.1,28.15-10.85,6-8.17,6.2-18.78,6.06-28.49Q363.23,465.6,347.24,468.07Z"/><path class="cls-2" d="M805.85,380.83c19.47-3.07,40.3.75,56.6,12.08a72.46,72.46,0,0,1,29.27,43.64c4.23,18.68,2.38,38.95-6.45,56.06a71.3,71.3,0,0,1-29.61,30.25c-16.61,8.95-36.53,11.12-54.86,7A72.16,72.16,0,0,1,760.45,505c-23-28.48-22.25-73.64,2.24-101A72.7,72.7,0,0,1,805.85,380.83Zm5.7,35c-13.14,2.3-23.89,12.94-27.16,25.77-3.56,13.94-2.32,30.11,6.74,41.79,9.73,12.73,28.48,16.6,42.84,9.93,10.63-4.62,17.9-15.06,20-26.27,2.87-14.7.54-31.83-10.79-42.53C834.93,416.64,822.68,413.6,811.55,415.84Z"/><path class="cls-2" d="M977.91,380.77c12.54-1.3,25.91.79,36.51,8,10.48,7,17,18.65,19.73,30.75s1.62,24.85,1.89,37.27q0,35.36,0,70.73h-38.7q0-39.87,0-79.73c.25-8.41-.72-17.59-6.39-24.23-10.88-12.31-34-10.6-42.18,4-5.54,8.74-4.58,19.43-4.6,29.31q0,35.35,0,70.69c-12.9,0-25.81,0-38.7,0q0-71.65,0-143.29H943c0,5.84,0,11.67,0,17.51C950.38,389.57,964,382.29,977.91,380.77Z"/><path class="cls-2" d="M505.34,381.88c18-2.85,37.67.92,52,12.68,14,11.32,21.79,28.81,24.19,46.38,3,21.89-.52,45.54-13.68,63.74a63,63,0,0,1-44.23,25.81c-17.81,2.1-38.14-2.09-49.86-16.72.12,23,0,46.06.05,69.09H435q0-99.33,0-198.65h37.58c0,5.74.06,11.49-.06,17.23C479.7,390.25,492.52,384,505.34,381.88Zm-5.27,34.89a33.6,33.6,0,0,0-22.35,18.16c-4.74,9.81-5.5,21.22-3.41,31.82,1.77,8.65,6.21,16.94,13.28,22.39,11.35,8.87,28.31,9.48,40.36,1.65,12.61-8.12,17.29-24.2,16.27-38.52-.59-10.06-4.14-20.37-11.6-27.41C524.17,416.67,511.34,414,500.07,416.77Z"/><path class="cls-2" d="M693.1,384.21h38.78q0,71.64,0,143.29c-12.93,0-25.84,0-38.78,0Q693.1,455.85,693.1,384.21Z"/></g></g></svg>