<svg id="Layer_1" data-name="Layer 1" xmlns="http://www.w3.org/2000/svg" viewBox="0 0 1200 900"><defs><style>.cls-1{fill:#244270;}.cls-2{fill:#ba2349;}</style></defs><g id="_244270ff" data-name="#244270ff"><path class="cls-1" d="M157.79,145.06h884.39q0,298,0,595.94H930c0-7.47,0-14.92,0-22.37h89.84V167.43H180.16q0,275.6,0,551.2H269.6V741H157.79Z"/><path class="cls-1" d="M630.71,457.15c8.87-4.3,18.94-4.75,28.63-4.55v25.17c-6.62-.07-14.68.11-19,6-4.72,6.91-3,15.75-3.35,23.63h21v22.77H637v79.36H610q0-39.66,0-79.36H593V507.44h17c-.07-11.06-.49-22.57,4.08-32.92A33.33,33.33,0,0,1,630.71,457.15Z"/><path class="cls-1" d="M717.22,456.62c8.61-3.83,18.19-4.19,27.46-4q0,12.56,0,25.15c-6.68-.08-14.88.13-19.09,6.23-4.56,6.93-2.92,15.63-3.24,23.44h21q0,11.37,0,22.77h-21q0,39.69,0,79.37h-27q0-39.68,0-79.36h-17V507.44h17c-.11-11.43-.49-23.41,4.54-34A33.41,33.41,0,0,1,717.22,456.62Z"/><path class="cls-1" d="M770.77,456.15h30.94V486H770.77Z"/><path class="cls-1" d="M293.45,466.54q13.6,0,27.2,0,0,20.46,0,40.9h21V530.2h-21c0,14.42,0,28.86,0,43.28,0,3.45.58,7.59,3.82,9.58,3.5,2,7.76,1.4,11.64,1.55v25.17c-10.32-.14-21.57,1.21-30.75-4.54-8.18-4.84-11.74-14.66-11.87-23.76-.11-17.1,0-34.18-.05-51.28H274.66V507.44h18.79Q293.45,487,293.45,466.54Z"/><path class="cls-1" d="M409.93,511.28c6.46-5.18,14.89-7,23-7q0,14.61,0,29.24c-9-.12-19.07.46-26.17,6.75s-8.71,16.25-9,25.23c-.09,14.69,0,29.39,0,44.08h-27q0-51.06,0-102.13h26.74c0,7.4-.08,14.82.08,22.21C400.28,522.71,403.91,515.85,409.93,511.28Z"/><path class="cls-1" d="M464.66,523A46.1,46.1,0,0,1,496,504.63c10.75-1.44,22.43,0,31.44,6.44,4.24,2.87,7.44,6.94,10.32,11.12,0-4.93,0-9.84,0-14.75h27V609.57h-27c0-4.92,0-9.82,0-14.74-4.59,7.2-11.31,13.2-19.56,15.79-15.83,5-34.4,1.76-46.92-9.36-10.21-8.94-15.61-22.32-16.75-35.66-1.32-14.73,1.24-30.47,10.16-42.6m39.88,7.24a25.68,25.68,0,0,0-20.1,16.64c-3.53,10.12-2.53,22.34,4.33,30.88,10.7,13.3,34.35,12.63,43.94-1.67,7-10.71,6.83-26-.86-36.34C525.65,531.5,514.43,528.44,504.54,530.24Z"/><path class="cls-1" d="M859.11,510.62c20.16-10,45.48-8.41,64.43,3.64-3.89,7.43-7.81,14.87-11.7,22.31-8.78-5.47-19.44-8.31-29.73-6.49a27.27,27.27,0,0,0-18,11.43c-5.44,8.09-6.24,18.82-3.07,27.93a26.85,26.85,0,0,0,18.31,16.87c11,3,22.95.1,32.5-5.87q5.83,11.16,11.71,22.32A65.91,65.91,0,0,1,888,612.89c-16.08.21-32.82-5.5-43.64-17.79-12-13.33-15.35-32.72-11.67-49.92A50.15,50.15,0,0,1,859.11,510.62Z"/><path class="cls-1" d="M772.53,507.44h27.19V609.57h-27.2Q772.54,558.49,772.53,507.44Z"/><path class="cls-1" d="M442,710.49c2.2,0,4.41,0,6.62,0,.63,1,1.28,2,1.91,3.06.63-1,1.26-2.07,1.92-3.07,2.18,0,4.34,0,6.52,0-1.5,2.27-3,4.54-4.49,6.83h-8C445,715,443.51,712.76,442,710.49Z"/><path class="cls-1" d="M301.19,719h22.29v7.22h-7.12V752c-2.69,0-5.38,0-8.06,0v-25.8c-2.38,0-4.75,0-7.12,0C301.18,723.77,301.18,721.38,301.19,719Z"/><path class="cls-1" d="M443.8,720.22c4.15-2.6,10.09-2.6,14,.54,1.66,1.36,2.62,3.32,3.73,5.12-2.22,1-4.41,2.07-6.65,3.07-1.21-1.43-2.48-3.46-4.66-3.13-2.1-.14-3.31,2.82-1.4,4,3.31,2.47,7.73,3.26,10.6,6.37,4,4.31,2.42,12.14-2.73,14.84-4.38,2.34-10.27,2.21-14.2-1-1.69-1.38-2.66-3.37-3.78-5.19,2.21-1.12,4.42-2.25,6.66-3.33,1.59,2.57,6,5.5,8.12,2-.07-.47-.23-1.45-.31-1.93-3.12-2.85-7.65-3.57-10.64-6.61C438.4,731,439,723.32,443.8,720.22Z"/><path class="cls-1" d="M574.86,719c3.49,0,7,0,10.48,0v33c-2.59,0-5.16,0-7.74,0q0-10.82,0-21.61c-2.44,6.31-4.83,12.62-7.26,18.93-2.48,0-4.94,0-7.4,0l-7.26-18.94c0,7.2,0,14.4,0,21.62-2.58,0-5.15,0-7.73,0V719c3.49,0,7,0,10.47,0q4.11,10.46,8.2,20.88Q570.75,729.41,574.86,719Z"/><path class="cls-1" d="M744.78,720.15c4.16-2.53,10-2.51,13.89.63,1.66,1.35,2.57,3.32,3.67,5.13l-6.57,3c-1.15-2.91-6.83-5-7.06-.5,2.13,3.51,6.94,3.82,10,6.38,5.47,3.5,4.84,12.43-.46,15.78-4.41,2.79-10.7,2.79-14.82-.53-1.75-1.38-2.73-3.41-3.84-5.25,2.21-1.13,4.43-2.22,6.66-3.31,1.49,1.68,3.2,4,5.81,3.52,2.09.16,3.24-2.78,1.46-4-3.1-2.4-7.19-3.27-10-6C739.23,731.08,739.84,723.21,744.78,720.15Z"/><path class="cls-1" d="M803.43,719c7.23-2,16,.51,19.87,7.22,4.91,8,2.43,20-6.19,24.35-8.19,4.37-20.07,1.7-24.14-7.07-4.78-9.12,0-22.18,10.46-24.5m1,7.83c-7.51,3.63-6,17,2.59,18.11,6.46,1.39,11.74-5.43,10.22-11.47C816.6,727.59,809.56,724,804.41,726.83Z"/><path class="cls-1" d="M326,719c2.95,0,5.91,0,8.87,0q3.7,11.73,7.43,23.44c2.52-7.79,5-15.63,7.46-23.44,2.95,0,5.9,0,8.86,0-4,11-8,22-11.91,33-2.94,0-5.86,0-8.79,0Q332,735.49,326,719Z"/><path class="cls-1" d="M368.39,719c2.95,0,5.91,0,8.86,0q3.74,11.76,7.45,23.48,3.74-11.73,7.45-23.48c3,0,5.9,0,8.86,0q-5.94,16.53-11.92,33c-2.93,0-5.86,0-8.78,0C376.35,741,372.35,730,368.39,719Z"/><path class="cls-1" d="M404.19,719h8.06v33c-2.69,0-5.38,0-8.06,0Q404.19,735.49,404.19,719Z"/><path class="cls-1" d="M418.1,719h17.58c0,2.41,0,4.8,0,7.22h-9.53v5.52c2.7,0,5.4,0,8.1,0,0,2.39,0,4.79,0,7.18-2.71,0-5.41,0-8.11,0,0,2,0,3.91,0,5.89h9.9c0,2.41,0,4.8,0,7.22h-18Q418.08,735.49,418.1,719Z"/><path class="cls-1" d="M463.28,752q5.72-16.5,11.41-33h8.49l11.41,33c-2.7,0-5.42,0-8.12,0-.76-2.48-1.57-4.93-2.35-7.41-3.46,0-6.91,0-10.38,0-.77,2.48-1.58,4.92-2.34,7.41h-8.12m15.65-24.42c-1.06,3.46-2.07,6.94-3.09,10.4,2.06,0,4.13,0,6.21,0C481,734.51,480,731,478.93,727.57Z"/><path class="cls-1" d="M502.24,719h8.06c0,8.16.06,16.34,0,24.49,0,2.62-.87,5.45-3.13,7-3.31,2.34-7.56,1.85-11.37,1.47.27-2.35.61-4.7.88-7,1.95-.15,5.39.45,5.46-2.41C502.43,734.64,502.15,726.81,502.24,719Z"/><path class="cls-1" d="M524.91,719h8.51l11.41,33h-8.12c-.78-2.49-1.57-4.93-2.34-7.41H524c-.77,2.48-1.59,4.93-2.36,7.42h-8.1q5.68-16.5,11.39-33m1.15,19c2.08,0,4.15,0,6.22,0q-1.56-5.25-3.11-10.47C528.12,731,527.09,734.5,526.06,738Z"/><path class="cls-1" d="M591.1,719h17.58c0,2.41,0,4.8,0,7.22h-9.53c0,1.83,0,3.68,0,5.52,2.7,0,5.4,0,8.11,0,0,2.38,0,4.78,0,7.17-2.7,0-5.42,0-8.12,0,0,2,0,3.91,0,5.89h9.9c0,2.41,0,4.8,0,7.22h-18Q591.09,735.49,591.1,719Z"/><path class="cls-1" d="M621.19,719h22.3c0,2.41,0,4.8,0,7.22-2.38,0-4.76,0-7.13,0V752c-2.69,0-5.38,0-8.06,0q0-12.91,0-25.81c-2.38,0-4.75,0-7.11,0C621.18,723.78,621.18,721.38,621.19,719Z"/><path class="cls-1" d="M647.33,752q0-16.51,0-33c5.69.31,11.67-.87,17.15,1.16,7,3.11,6.57,13.87.69,18,2.5,4.62,5,9.27,7.48,13.91-3,0-6,0-8.94,0-1.94-4.1-3.92-8.17-5.88-12.23h-2.44c0,4.07,0,8.14,0,12.22-2.7,0-5.39,0-8.06,0m8.07-26.24c0,2.45,0,4.93,0,7.42,1.69-.3,3.74.1,5.09-1.17,1.25-1.55,1.32-4.39-.47-5.54C658.56,725.83,656.92,726,655.4,725.76Z"/><path class="cls-1" d="M673.21,752q5.71-16.5,11.41-33h8.49l11.41,33c-2.72,0-5.42,0-8.12,0-.78-2.48-1.57-4.93-2.35-7.41-3.46,0-6.91,0-10.38,0-.77,2.47-1.58,4.92-2.34,7.41h-8.12m15.65-24.47c-1,3.48-2.07,7-3.09,10.45q3.09,0,6.2,0Q690.43,732.76,688.86,727.52Z"/><path class="cls-1" d="M707.65,719h8.2q6,10.23,12.06,20.46,0-10.24,0-20.46h7.93v33c-2.68,0-5.35,0-8,0-4.1-6.73-8.17-13.48-12.27-20.21V752q-4,0-7.91,0Q707.64,735.49,707.65,719Z"/><path class="cls-1" d="M766.46,752V719c5.44.27,11.06-.73,16.38.73,8,2.85,8.25,15.72.9,19.48-2.82,1.52-6.14,1.18-9.22,1.29V752c-2.69,0-5.37,0-8.06,0m8.08-26.24q0,3.94,0,7.93c2.75.15,6.71-.58,6.22-4.23C780.93,726,777.08,725.72,774.54,725.75Z"/><path class="cls-1" d="M830,719c5.78.3,11.87-1,17.41,1.25,6.77,3.28,6.2,13.77.46,17.88,2.48,4.62,5,9.23,7.44,13.87h-8.9c-2-4.06-3.94-8.11-5.87-12.18-.61,0-1.84,0-2.45-.07-.05,4.08,0,8.15,0,12.25-2.69,0-5.37,0-8,0q0-16.51,0-33m8.1,6.75q-.08,3.71,0,7.46a35.18,35.18,0,0,0,4.18-.55c2-1,2.27-3.84,1.13-5.56C842.08,725.6,839.84,726.12,838.09,725.74Z"/><path class="cls-1" d="M855.55,719q11.15,0,22.31,0c0,2.41,0,4.81,0,7.22-2.38,0-4.75,0-7.11,0q0,12.9,0,25.81c-2.7,0-5.38,0-8.06,0q0-12.91,0-25.8c-2.38,0-4.75,0-7.12,0C855.54,723.77,855.54,721.38,855.55,719Z"/><path class="cls-1" d="M881.68,719q8.79,0,17.59,0c0,2.39,0,4.79,0,7.2h-9.53v5.52c2.7,0,5.41,0,8.12,0,0,2.38,0,4.78,0,7.17-2.7,0-5.41,0-8.11,0,0,2,0,3.91,0,5.89h9.91c0,2.41,0,4.8,0,7.22h-18Q881.68,735.49,881.68,719Z"/></g><g id="_ba2349ff" data-name="#ba2349ff"><path class="cls-2" d="M307.81,253.51h22.11q17,42.58,34,85.17c.1.9,1.69,3.12,2,.85q17.33-43,34.54-86,11.07,0,22.14,0Q441.78,330.89,461,408.27H431.17c-7.88-33.45-15.62-66.94-23.58-100.37-10.92,25.7-21.39,51.59-32.11,77.36-6.86,0-13.72,0-20.58,0-10.73-25.77-21.23-51.64-32.1-77.36C314.68,341.32,307,374.83,299,408.27H269.34Q288.59,330.89,307.81,253.51Z"/><path class="cls-2" d="M693.71,253.51q13.47,0,27,0V408.26h-27c0-4.93,0-9.84,0-14.76-4.59,7.27-11.41,13.29-19.72,15.86-14.82,4.62-32,2.06-44.37-7.47-10.92-8.28-17.18-21.5-18.82-34.89-1.93-15.48.37-32.22,9.69-45.11A46.15,46.15,0,0,1,652,303.29c10.81-1.41,22.56.11,31.57,6.64,4.14,2.84,7.23,6.87,10.1,10.94V253.51M659.5,329.12a25.89,25.89,0,0,0-13,6.82c-9.79,9.93-10.61,26.83-3.35,38.43,9.72,15.26,35.23,15.5,45.38.59,7.47-11.25,7-27.77-2-38C679.9,329.49,669,327.12,659.5,329.12Z"/><path class="cls-2" d="M755.08,254.83H786q0,14.92,0,29.85H755.08C755.08,274.74,755.06,264.78,755.08,254.83Z"/><path class="cls-2" d="M496,317.32C507.08,306,523.65,301.71,539.12,303c12.84.78,25.78,6.39,33.56,16.89,9.26,12.12,11.19,28,10.75,42.82-25.46,0-50.91,0-76.38,0,.87,6.47,3.3,13,8.28,17.43,7.38,6.87,18.33,8.44,27.95,6.59,8.94-1.71,16.76-6.9,23.18-13.18,4.53,6.57,9.13,13.12,13.68,19.67-9.39,8.8-21,15.55-33.86,17.5-16.57,2.53-34.81-.61-47.84-11.7-10.72-9-16.54-22.76-17.4-36.53-1.25-16.18,3.13-33.54,14.92-45.21M520.64,327c-7.43,3-11.68,10.63-12.91,18.25q24.19,0,48.42,0c-.68-6-3-12.14-8-15.81C540.34,323.69,529.4,323.43,520.64,327Z"/><path class="cls-2" d="M854,303.52c11.17-1.77,23.43-.43,32.85,6.26,4.21,2.87,7.4,6.93,10.26,11.12,0-4.94,0-9.85,0-14.77h27V408.26h-27c0-4.93,0-9.84,0-14.77-4.53,7.18-11.21,13.13-19.38,15.74A50.15,50.15,0,0,1,837,404.65c-12.3-7.34-20.06-20.72-22.37-34.65-2.56-15.59-.86-32.59,7.85-46.09A46,46,0,0,1,854,303.52M863.46,329a25.65,25.65,0,0,0-19.78,17c-3.41,10.24-2.26,22.58,4.9,31,11.13,13,35,11.83,44.07-3,6.65-11.08,6.12-26.66-2.35-36.67C883.83,329.72,873,327.18,863.46,329Z"/><path class="cls-2" d="M756.84,306.13H784q0,51.08,0,102.14H756.84Z"/></g></svg>