<svg xmlns="http://www.w3.org/2000/svg" viewBox="0 0 1200 900"><defs><style>.cls-1{fill:none;}.cls-2{fill:#fff;}.cls-3{fill:#03a063;}.cls-4{fill:#d8fffb;}.cls-5{fill:#74c1a2;}.cls-6{fill:#adebd5;}.cls-7{fill:#010101;}.cls-8{fill:#429c77;}.cls-9{fill:#099e63;}.cls-10{fill:#089f63;}.cls-11{fill:#f1fff5;}.cls-12{fill:#318463;}.cls-13{fill:#f1fef7;}.cls-14{fill:#3e9e73;}.cls-15{fill:#079f61;}.cls-16{fill:#05a063;}.cls-17{fill:#d7d7d7;}.cls-18{fill:#ebfff8;}.cls-19{fill:#c1c1c1;}.cls-20{fill:#9d9d9d;}.cls-21{fill:#333;}.cls-22{fill:silver;}</style></defs><g id="Layer_2" data-name="Layer 2"><g id="Layer_2-2" data-name="Layer 2"><rect class="cls-1" width="1200" height="900"/><path class="cls-2" d="M509.56,260.84c18.63-4.52,37.86-4.61,56.9-4.06,19.88,1.17,39.48,5,58.91,9.23,6.36,1.35,12.72,2.71,19.12,3.83,5.37.44,8.69,5.15,12.5,8.37,15.8,13.7,31.3,27.73,47.14,41.38,3.28,3.13,7,5.8,9.9,9.26C645.83,306.29,577.78,283.32,509.56,260.84Z"/><path class="cls-2" d="M468.57,273.18a252.71,252.71,0,0,1,27.11-9.05c3.66-1.14,7.14,1.19,10.56,2.2,47.35,17.36,94.66,34.89,142.08,52.06a18.6,18.6,0,0,1-8.56.9c-6.89-.85-13.86-.73-20.79-1.21l1.83,2.28c18.34,3.41,34.46,13.86,48.17,26.12,24.19,21.06,47.34,43.26,71.21,64.68-19-8.46-37.56-17.88-56.43-26.61-44.07-21.35-88.41-42.1-132.46-63.45-5.44-2.64-11.75-1.72-17.54-1.18a50.1,50.1,0,0,0-6.26,2c-8.1-4.51-17.69-3.2-26.57-3.7,2.61,3.77,7.57,3.8,11.46,5.46,16.06,6,31.64,13.27,47.1,20.66,4.54,2.2,9.41,4,13.22,7.35C593,370,612.85,388.82,633.35,406.92c12.68,12.14,26.34,23.38,37.51,37,1.58,2.32,3.6,4.8,3.56,7.75a25.88,25.88,0,0,1-3.71,5.07c2,.08,4.34-.44,5.93,1.26a171.47,171.47,0,0,1,32-.07c2.9.29,5.8.66,8.69,1.08-1-1-2-2.07-3.06-3.1-2.73-.75-5.45-1.5-8.16-2.29-18.11-6.09-32.54-19.14-46.66-31.53C644.83,409,630.49,395.65,616,382.51c.19-3.19-2.09-5.17-4.32-6.94,1.47-1.45,3-2.87,4.45-4.3,58.26,28,116.66,55.69,174.95,83.63a50,50,0,0,0,10.3,4.1,46,46,0,0,0-5.77-6.23c-4.77-4.64-10.65-7.81-16.73-10.42.82-.87,1.64-1.74,2.48-2.6l-6.51-3.27,2.28-1.9-1.91-.39c-27.42-24.58-54.31-49.72-81.59-74.46-9-8.69-19.09-16.45-26.57-26.63a24,24,0,0,1-3.66-8.7l1.2.08q33.78,12.36,67.55,24.76c4,1.55,8.33,2.51,11.73,5.23Q827.27,428,910.79,501.4c14,12.08,27.27,24.91,41.76,36.35-.77.78-1.5,2.12-2.79,1.6-23.54-6-46.93-12.77-70.9-16.93-.53-2.64-1.1-2.51-1.57-.59-30.84-5.59-62.08-10.08-93.49-9.5-34.45,0-69.8,6.15-100.14,23.18-2.27,1.15-4.87.32-7.18-.18a392.26,392.26,0,0,0-41-9.07c-9.8-2.28-19.91-2.66-29.91-3.08-15.55,0-31.33-.47-46.56,3.12a264.7,264.7,0,0,0-93.33,34.31c-9.6,6-19.51,11.69-28.05,19.17a168.71,168.71,0,0,1-12.41-13.1c-7.89-8.92-16.06-17.6-23.8-26.66a208.52,208.52,0,0,1,41.55-28.18c.32-2.24.67-4.49,1.06-6.72-3.22-2.08-6.55-4-9.89-5.88-13.89,7.54-27.54,15.52-40.77,24.18-1.62.83-3.18,2.49-5.17,2-3.41-3.32-6.14-7.28-9.58-10.58a180.64,180.64,0,0,1,42-28.32q.69-3.6,1.39-7.17c-3.33-1.89-6.43-4.24-10.05-5.55-15.93,8-30.95,17.71-46.06,27.14-8.72-10.56-18.39-20.28-27.31-30.68-2.64-3.2-6.28-5.76-8-9.58a181.42,181.42,0,0,1,39.8-26.83,70.89,70.89,0,0,0,.91-7.24c-3.34-1.25-6.34-4.57-9.88-4.49-14.73,7.76-29.07,16.35-43,25.55-2.45-2.52-4.88-5.07-7.31-7.6A175.48,175.48,0,0,1,351,413c.4-2.26.84-4.5,1.28-6.74-3.26-1.75-6.19-4.35-9.82-5.26-14.7,7.67-28.75,16.53-42.83,25.3-3.21-1.85-5.23-5.14-7.5-7.95,12.32-10,25.21-19.6,39.7-26.22.36-2.33.73-4.66,1.17-7-3.22-1.73-6.37-3.58-9.59-5.32-14.69,8.25-29.25,16.73-43.36,25.94A122.86,122.86,0,0,0,269,393.36c-3.92-4.51-7.66-9.2-12.11-13.21a165.94,165.94,0,0,1,39.76-26.93c.48-2.35,1-4.7,1.37-7.06q-4.69-2.46-9.2-5.23c-15,7.66-29.32,16.71-43.52,25.8-2-2.22-4.08-4.32-5.9-6.67a11.09,11.09,0,0,1,2.07-2.35,216.3,216.3,0,0,1,38.32-25.48c.12-2.14.27-4.28.41-6.42a104.72,104.72,0,0,0-9.6-5.23c-14.69,8.52-29.43,17-43.74,26.14-4.62-6.25-10.39-11.51-15.52-17.32A349.71,349.71,0,0,1,264,298.66c6.42-2.81,12.85-5.62,19.32-8.32,21.67-7.83,44.05-14,67.07-16,32.79-3.84,66-.11,98,7.5,7-2.25,13.33-6.13,20.3-8.45,0,.39,0,1.15.06,1.54l2.53-.65C470.39,273.92,469.46,273.56,468.57,273.18ZM457,298.92c1.19,3.46,4.62,5.44,6.85,8.2,5.49,5.2,10.45,10.91,15.68,16.36,7.22,8.08,15.26,15.39,22.26,23.67,7,7.62,14.86,14.43,21.28,22.55,6.58,6.8,13.29,13.47,19.84,20.3C558,406.69,574,422.57,589.15,439.25,603.62,453.62,617,469,631.54,483.32l.31.25,1.17,1.7c6,6.53,12.26,12.84,18.53,19.13a21.28,21.28,0,0,0,2.27,2.77c5.51,6.81,12.88,12.1,17.6,19.48-.19-.92-.37-1.85-.54-2.77-4-4.24-8.24-8.2-12.15-12.51-8.5-9.93-18.33-18.66-26.75-28.66-9.12-9.34-18.39-18.54-27-28.3-18.72-19.17-36.81-38.94-55.47-58.17-8.21-9.61-17.58-18.12-26.12-27.42-7.07-8.48-15.26-15.93-22.8-24-.29-.34-.84-1-1.11-1.37-4.82-5.75-10.33-10.85-15.5-16.26-3.09-3.59-6.61-6.82-9.63-10.48C468.63,310.71,462.69,304.92,457,298.92Zm-97.22,31.27c3.08,4,8.7,3.42,12.92,5.58,17.38,7,27.9,23.35,40.41,36.37,19.32,22,38.92,43.78,58.23,65.8,9.77,12.38,21.11,24.65,24.74,40.47,2.26,9.78-1.08,20.55-9.1,26.76.06.51.17,1.54.22,2,9.05.79,19.61-5,21.22-14.5,2.71-10.71-2.74-21.27-8.19-30.16a16.23,16.23,0,0,0,.74-6.38c.23.52.68,1.57.92,2.11,1.22-.3,2.45-.64,3.69-.94a76.59,76.59,0,0,1,5.12,8.52,50.05,50.05,0,0,0,3.08,5.84c.45-3,1-6.05,1.68-9.05,3.36-2.86,7.82-2.82,12-2.91-6.89-4.86-14-9.45-20-15.48-15.21-15.13-28.89-31.7-43.25-47.62-11.51-12.94-22.92-25.95-34.48-38.85-4.6-6-10.77-11.36-12.84-18.83-.85-3.32,3.37-3.49,4.34-6.12.44-.61,1.37-1.83,1.81-2.44-9.08-.82-18.22.37-27.27,1.21-2.38-1.27-6.82-4.31-8-.18C378.45,331,369.12,329.82,359.75,330.19Z"/><path class="cls-3" d="M363.18,154.74c2.32-4.34,5.55-9.13,10.8-9.91,6.43-1.34,12.92,2.58,15.81,8.25,3,4.52,3.09,10.13,2.55,15.34-1,1.05-2,2.1-3,3.18-2.93.51-5.83,1.16-8.72,1.85-.91-.71-1.83-1.4-2.74-2.1l2.37,2.27-2.92,2c-1.65,1.16-3.17,2.5-4.72,3.79a27.12,27.12,0,0,0-3.77,19.82,24.08,24.08,0,0,0,19.35,17.06c8,1.16,16.72-1.16,22.61-6.89,4.32-3.51,7-9.11,6.21-14.72l-1.38-2c-2.09-4.53-9.2-5.68-12.14-1.45-2.35,3.37-1.09,7.61-.25,11.26-1.9.52-3.79,1.1-5.69,1.64-2.29-7.07-4.81-15.2-1.35-22.32,2.87-5.05,8.28-9.46,14.42-8.74,5.51-.56,9.39,4,12.91,7.46a21.1,21.1,0,0,1,13.38-12.46c10.4-3.25,21.48-2.07,32.23-2.18,0,2,0,4,0,5.93L466,172c-5.13,3.42-5.21,10.24-7.87,15.29a17.32,17.32,0,0,1-8,8.35c5.61,1.31,10,5.07,13.24,9.71l-.11,1.08a39.39,39.39,0,0,0-.05,10.29l.1.91c-2.57,5.53-7.49,10.11-13.5,11.52-4.71,1.39-9.68.83-14.49.43-6-2.43-12.2-6-14.93-12.15,1.27-1,2.54-2,3.79-3.06l2.08.26c2.3,2,4.82,4.21,8,4.52,6.1.88,12.86-4.67,11.56-11.13-1-4.65-5.91-6.9-10.32-6.42-12.78,5-21.47,16.55-34.3,21.47-.33.33-1,1-1.31,1.34-1.43.46-2.87.91-4.32,1.33-9,.93-18.56,1.82-26.94-2.27-4.19-1.94-7.64-5.16-10.83-8.43-.62-1.89-.2-4.19-1.38-5.83-6.21-5.35-5-14.43-4.48-21.72a54.29,54.29,0,0,1,3.2-7.87c2.57-2.64,5.29-5.11,7.9-7.69.86-1.29-.28-2.72-.58-4-1.76-4.21-7.18-3.54-10.87-4.77-.17-.37-.52-1.1-.68-1.48,3.64-.82,7.37-1.44,10.82-2.93C363.08,158,362.69,156,363.18,154.74Zm84.57,17c-4.88-.41-9.46,1.71-13.19,4.68-5.12,4.14-6.91,10.85-8.06,17,1.77-.18,3.77.1,5.28-1.1,4.69-3.21,8.06-7.91,10.76-12.83,1.77-3.36,4.78-5.78,6.91-8.88Z"/><path class="cls-4" d="M377.9,171.35c.91.7,1.83,1.39,2.74,2.1,2.89-.69,5.79-1.34,8.72-1.85-2.1,4.42-7.72,5.49-12,4l2.92-2Z"/><path class="cls-5" d="M352.6,207.52c-2.17-6.38-2.87-13.57-.75-20-.48,7.29-1.73,16.37,4.48,21.72,1.18,1.64.76,3.94,1.38,5.83a32.82,32.82,0,0,1-3.31-4.14,9.54,9.54,0,0,0-4-3.4Z"/><path class="cls-6" d="M403.51,191.23c2.94-4.23,10.05-3.08,12.14,1.45-2.48-1.05-4.82-2.55-7.49-3.06-4.26,2.75-4.3,8.38-4.9,12.87C402.42,198.84,401.16,194.6,403.51,191.23Z"/><path class="cls-7" d="M327.12,201.11l2.23-.76c6.86,2.77,14,4.69,21,7.14a9.54,9.54,0,0,1,4,3.4c-4.86-1.84-9.7-3.73-14.6-5.45l-3.38-1.22A78,78,0,0,0,327.12,201.11Z"/><path class="cls-7" d="M395.48,225.73c1.45-.42,2.89-.87,4.32-1.33,14.54,4,28.64,9.52,43.06,13.93C462.2,245,481.66,251.24,501,257.8A42.23,42.23,0,0,0,509.2,260c8.75-1.76,17.74-2.91,26.64-3.85,15.79-.44,31.64-.67,47.3,1.51C605,260.13,626.36,266,648,269.86c4.21,2.28,7.46,6,11,9.13,17.55,15.18,34.75,30.74,52.32,45.88.82,1,1.77,1.76,2.58,2.76a25.1,25.1,0,0,0,5.28,2.9Q829,367.1,938.89,403.71a47,47,0,0,1,3.65,9.94c-.62,3.57-2.68,6.83-6.23,8-3.17,1.85-6.72.25-9.76-1-23.85-8.85-47.74-17.51-71.58-26.31-36.41-13.27-72.74-26.78-109.17-39.95,3.3,4.56,8.41,7.52,12.16,11.77,20.73,17.5,40.8,35.76,61.22,53.63q51.12,44.85,102.15,89.78c8.59,8.15,17.81,15.64,26.54,23.63l5.94,4.68c1.16,1.21,2.4,2.35,3.67,3.47l-1.82-.28-.4.84-1.5-1c-5-.91-9.87-2.7-14.92-3.51l-.38-.37c-17.39-4.35-34.63-9.48-52.31-12.64-24-4.92-48.31-9.19-72.84-10.46-13.27-1.77-26.7-.46-40-1-12.66,1-25.41,1.74-37.86,4.44-11.7,2.34-23.06,6.07-34.25,10.12-6.61,2.48-12.5,6.58-19,9.18-6.19-.2-12-2.86-18-4-11.32-2.39-22.68-6.35-34.4-5.28,1.88-.47,3.77-.94,5.68-1.3a392.26,392.26,0,0,1,41,9.07c2.31.5,4.91,1.33,7.18.18,30.34-17,65.69-23.15,100.14-23.18,31.41-.58,62.65,3.91,93.49,9.5.47-1.92,1-2.05,1.57.59,24,4.16,47.36,11,70.9,16.93,1.29.52,2-.82,2.79-1.6-14.49-11.44-27.81-24.27-41.76-36.35Q827.26,428,743.85,354.47c-3.4-2.72-7.75-3.68-11.73-5.23q-33.74-12.45-67.55-24.76a87.11,87.11,0,0,0-16.25-6.09c-47.42-17.17-94.73-34.7-142.08-52.06-3.42-1-6.9-3.34-10.56-2.2a252.71,252.71,0,0,0-27.11,9.05c.89.38,1.82.74,2.72,1.11l-2.53.65c0-.39-.05-1.15-.06-1.54-7,2.32-13.34,6.2-20.3,8.45-32-7.61-65.22-11.34-98-7.5-23,2-45.4,8.16-67.07,16-6.47,2.7-12.9,5.51-19.32,8.32a349.71,349.71,0,0,0-52.64,30.74c5.13,5.81,10.9,11.07,15.52,17.32,14.31-9.17,29.05-17.62,43.74-26.14a104.72,104.72,0,0,1,9.6,5.23c-.14,2.14-.29,4.28-.41,6.42a216.3,216.3,0,0,0-38.32,25.48,11.09,11.09,0,0,0-2.07,2.35c1.82,2.35,3.92,4.45,5.9,6.67,14.2-9.09,28.48-18.14,43.52-25.8q4.5,2.77,9.2,5.23c-.41,2.36-.89,4.71-1.37,7.06a165.94,165.94,0,0,0-39.76,26.93c4.45,4,8.19,8.7,12.11,13.21a122.86,122.86,0,0,1,11.06,12.4c14.11-9.21,28.67-17.69,43.36-25.94,3.22,1.74,6.37,3.59,9.59,5.32-.44,2.33-.81,4.66-1.17,7-14.49,6.62-27.38,16.24-39.7,26.22,2.27,2.81,4.29,6.1,7.5,7.95,14.08-8.77,28.13-17.63,42.83-25.3,3.63.91,6.56,3.51,9.82,5.26-.44,2.24-.88,4.48-1.28,6.74a175.48,175.48,0,0,0-40,27.1c2.43,2.53,4.86,5.08,7.31,7.6,13.9-9.2,28.24-17.79,43-25.55,3.54-.08,6.54,3.24,9.88,4.49a70.89,70.89,0,0,1-.91,7.24,181.42,181.42,0,0,0-39.8,26.83c1.77,3.82,5.41,6.38,8,9.58,8.92,10.4,18.59,20.12,27.31,30.68,15.11-9.43,30.13-19.16,46.06-27.14,3.62,1.31,6.72,3.66,10.05,5.55q-.7,3.57-1.39,7.17a180.64,180.64,0,0,0-42,28.32c3.44,3.3,6.17,7.26,9.58,10.58,2,.46,3.55-1.2,5.17-2,13.23-8.66,26.88-16.64,40.77-24.18,3.34,1.88,6.67,3.8,9.89,5.88-.39,2.23-.74,4.48-1.06,6.72A208.52,208.52,0,0,0,401.38,540c7.74,9.06,15.91,17.74,23.8,26.66a168.71,168.71,0,0,0,12.41,13.1c8.54-7.48,18.45-13.17,28.05-19.17A264.7,264.7,0,0,1,559,526.3c1.38.2,2.77.4,4.15.62-9.7.3-19.12,3-28.49,5.33-22.17,5.42-43.2,14.75-63.16,25.69C459.7,565,447.82,572,437.19,580.8c-21.93-23.45-42.93-47.76-64.58-71.43Q295.31,423.43,218,337.55c-2.59-2.7-5.17-5.47-7.59-8.34,4.77-3.68,9.93-6.83,15-10.12,38.67-24.64,82.72-42,128.68-45.8,31.63-3.46,63.57.71,94.39,7.84,11.47-4.48,22.41-10.34,34.27-13.83,4.39-1.59,9.26-2.09,13.24-4.67C462.43,250.39,428.9,238.21,395.48,225.73Zm114.08,35.11c68.22,22.48,136.27,45.45,204.47,68-2.94-3.46-6.62-6.13-9.9-9.26-15.84-13.65-31.34-27.68-47.14-41.38-3.81-3.22-7.13-7.93-12.5-8.37-6.4-1.12-12.76-2.48-19.12-3.83-19.43-4.24-39-8.06-58.91-9.23C547.42,256.23,528.19,256.32,509.56,260.84Z"/><path class="cls-7" d="M457,298.92c5.72,6,11.66,11.79,17.34,17.82,3,3.66,6.54,6.89,9.63,10.48,5.17,5.41,10.68,10.51,15.5,16.26.27.34.82,1,1.11,1.37,7.54,8,15.73,15.49,22.8,24,8.54,9.3,17.91,17.81,26.12,27.42,18.66,19.23,36.75,39,55.47,58.17,8.65,9.76,17.92,19,27,28.3,8.42,10,18.25,18.73,26.75,28.66,3.91,4.31,8.17,8.27,12.15,12.51.17.92.35,1.85.54,2.77-4.72-7.38-12.09-12.67-17.6-19.48a21.28,21.28,0,0,1-2.27-2.77c-6.27-6.29-12.52-12.6-18.53-19.13l-1.17-1.7-.31-.25c-14.53-14.3-27.92-29.7-42.39-44.07C574,422.57,558,406.69,542.88,390c-6.55-6.83-13.26-13.5-19.84-20.3-6.42-8.12-14.29-14.93-21.28-22.55-7-8.28-15-15.59-22.26-23.67-5.23-5.45-10.19-11.16-15.68-16.36C461.59,304.36,458.16,302.38,457,298.92Z"/><path class="cls-8" d="M463.17,206.42a12.48,12.48,0,0,1-.05,10.29A39.39,39.39,0,0,1,463.17,206.42Z"/><path class="cls-9" d="M619,318.08c6.93.48,13.9.36,20.79,1.21a18.6,18.6,0,0,0,8.56-.9,87.11,87.11,0,0,1,16.25,6.09l-1.2-.08a24,24,0,0,0,3.66,8.7c7.48,10.18,17.55,17.94,26.57,26.63,27.28,24.74,54.17,49.88,81.59,74.46a21.34,21.34,0,0,1-3.87-1.08q-105.26-50.26-210.48-100.6c-9.05-4.12-17.76-9.08-27.09-12.59,5.79-.54,12.1-1.46,17.54,1.18,44.05,21.35,88.39,42.1,132.46,63.45,18.87,8.73,37.43,18.15,56.43,26.61-23.87-21.42-47-43.62-71.21-64.68-13.71-12.26-29.83-22.71-48.17-26.12Z"/><path class="cls-10" d="M500.92,318.22c8.88.5,18.47-.81,26.57,3.7,83.65,40.43,167.58,80.3,251.36,120.43,6.08,2.61,12,5.78,16.73,10.42-1.5.74-3,1.46-4.53,2.13C732.76,427,674.36,399.24,616.1,371.27c-8.54-4.37-17.29-8.28-26-12.19,8.95,7.44,17.1,15.8,25.9,23.43,14.52,13.14,28.86,26.5,43.44,39.58,14.12,12.39,28.55,25.44,46.66,31.53L705,453.3c1.21,1.56,2.41,3.09,3.64,4.63a171.47,171.47,0,0,0-32,.07c-1.59-1.7-3.89-1.18-5.93-1.26a25.88,25.88,0,0,0,3.71-5.07c0-2.95-2-5.43-3.56-7.75-11.17-13.62-24.83-24.86-37.51-37C612.85,388.82,593,370,572.7,351.69c-3.81-3.4-8.68-5.15-13.22-7.35-15.46-7.39-31-14.64-47.1-20.66C508.49,322,503.53,322,500.92,318.22Z"/><path class="cls-11" d="M527.49,321.92a50.1,50.1,0,0,1,6.26-2c9.33,3.51,18,8.47,27.09,12.59q105.24,50.33,210.48,100.6a21.34,21.34,0,0,0,3.87,1.08l1.91.39-2.28,1.9,6.51,3.27c-.84.86-1.66,1.73-2.48,2.6C695.07,402.22,611.14,362.35,527.49,321.92Z"/><path class="cls-12" d="M359.75,330.19c9.37-.37,18.7.82,28.07,1.24l.36.85c-5.34.12-10.66,0-16-.3.16,1.26.31,2.53.48,3.79C368.45,333.61,362.83,334.19,359.75,330.19Z"/><path class="cls-12" d="M791.05,454.9c1.52-.67,3-1.39,4.53-2.13a46,46,0,0,1,5.77,6.23A50,50,0,0,1,791.05,454.9Z"/><path class="cls-12" d="M705,453.3l1.11.32c2.71.79,5.43,1.54,8.16,2.29,1,1,2,2.06,3.06,3.1-2.89-.42-5.79-.79-8.69-1.08C707.37,456.39,706.17,454.86,705,453.3Z"/><path class="cls-12" d="M510.67,465.86c1.58-1.08,3.16-2.15,4.76-3.21-.68,3-1.23,6-1.68,9.05A50.05,50.05,0,0,1,510.67,465.86Z"/><path class="cls-13" d="M387.82,331.43c1.14-4.13,5.58-1.09,8,.18.7.83,1.41,1.66,2.14,2.47,15.34,16.53,29.95,33.74,45.07,50.48,11.09,12.95,22.78,25.37,33.84,38.32,9.88,11.22,20.22,22.12,28.72,34.46-1.24.3-2.47.64-3.69.94-.24-.54-.69-1.59-.92-2.11a16.23,16.23,0,0,1-.74,6.38c-16.34-24.27-37-45.1-56.09-67.17-18.71-21-37.27-42.09-55.93-63.1Z"/><path class="cls-14" d="M395.78,331.61c9.05-.84,18.19-2,27.27-1.21-.44.61-1.37,1.83-1.81,2.44-1.44.71-2.86,1.48-4.28,2.22l-2.76-3.59c-5.43.57-11.41-.39-16.28,2.61C397.19,333.27,396.48,332.44,395.78,331.61Z"/><path class="cls-15" d="M372.19,332c5.33.26,10.65.42,16,.3,18.66,21,37.22,42.12,55.93,63.1,19.06,22.07,39.75,42.9,56.09,67.17,5.45,8.89,10.9,19.45,8.19,30.16-1.61,9.52-12.17,15.29-21.22,14.5-.05-.5-.16-1.53-.22-2,8-6.21,11.36-17,9.1-26.76-3.63-15.82-15-28.09-24.74-40.47-19.31-22-38.91-43.78-58.23-65.8-12.51-13-23-29.38-40.41-36.37C372.5,334.51,372.35,333.24,372.19,332Z"/><path class="cls-16" d="M397.92,334.08c4.87-3,10.85-2,16.28-2.61l2.76,3.59c1.42-.74,2.84-1.51,4.28-2.22-1,2.63-5.19,2.8-4.34,6.12,2.07,7.47,8.24,12.83,12.84,18.83,11.56,12.9,23,25.91,34.48,38.85,14.36,15.92,28,32.49,43.25,47.62,5.94,6,13.08,10.62,20,15.48-4.19.09-8.65.05-12,2.91-1.6,1.06-3.18,2.13-4.76,3.21a76.59,76.59,0,0,0-5.12-8.52c-8.5-12.34-18.84-23.24-28.72-34.46-11.06-12.95-22.75-25.37-33.84-38.32C427.87,367.82,413.26,350.61,397.92,334.08Z"/><path class="cls-17" d="M218,337.55q77.34,85.88,154.66,171.82c21.65,23.67,42.65,48,64.58,71.43C447.82,572,459.7,565,471.47,557.94c20-10.94,41-20.27,63.16-25.69,9.37-2.32,18.79-5,28.49-5.33,6.7.07,13.3-1.37,20-1.37,15.57-.32,31.25-.64,46.65,2,11.72-1.07,23.08,2.89,34.4,5.28,6,1.11,11.81,3.77,18,4,6.5-2.6,12.39-6.7,19-9.18,11.19-4,22.55-7.78,34.25-10.12,12.45-2.7,25.2-3.44,37.86-4.44,13.34.5,26.77-.81,40,1,24.53,1.27,48.79,5.54,72.84,10.46,17.68,3.16,34.92,8.29,52.31,12.64l.38.37c4.78,7.2,14.08,10.42,17.12,18.83-3.23-.77-6.46-1.72-9.8-1.81a14.23,14.23,0,0,0-7.77-4.46C888.72,537,837.9,525.74,786.29,526c-35-.25-70.89,5.76-101.83,22.81a7,7,0,0,1-6.33.68c-37.27-10.8-76.76-15.45-115.34-9.88-41.81,5.51-81.4,22.91-115.86,46.9-3.42,2.35-6.78,4.8-10.2,7.15Q327.08,471.49,217.09,349.62c-2-2.59-3.92-5.28-5.9-7.89C213.44,340.34,215.71,339,218,337.55Z"/><path d="M216.15,348.75l.94.87Q327,471.59,436.73,593.68c3.42-2.35,6.78-4.8,10.2-7.15,34.46-24,74.05-41.39,115.86-46.9,38.58-5.57,78.07-.92,115.34,9.88a7,7,0,0,0,6.33-.68c30.94-17.05,66.83-23.06,101.83-22.81,51.61-.28,102.43,11,152.1,24a14.23,14.23,0,0,1,7.77,4.46c5.86,5.08,11.53,10.38,17.57,15.26a28.44,28.44,0,0,1-7.2-1.84c-55.12-15.13-111.62-28.06-169.11-27.81-35.41.63-72,6.45-102.82,24.9-6.28-1.72-12.52-3.66-18.89-5-1-.23-3.12-.68-4.16-.89-48.36-11.21-100.15-10-147,7.13A273.15,273.15,0,0,0,445,603.15c-2.06,1.43-4.09,2.91-6.15,4.32-.52.36-1.55,1-2.07,1.38-9.81-11.18-19.93-22.1-29.79-33.24Q307.15,465.27,207.83,354.45A65.8,65.8,0,0,0,216.15,348.75Z"/><path class="cls-18" d="M590.07,359.08c8.74,3.91,17.49,7.82,26,12.19-1.49,1.43-3,2.85-4.45,4.3,2.23,1.77,4.51,3.75,4.32,6.94C607.17,374.88,599,366.52,590.07,359.08Z"/><path class="cls-19" d="M921.33,509.62a6.82,6.82,0,0,1,5.34-1.27c28,1.43,56.05,2.31,83.84,6.14,6.81.93,13.73,1.78,20.23,4.18,2.37,1,5.16,2,6.14,4.63-.08,3.75-3.87,5.57-7,6.41-10.44,3-21.39,3.74-32.21,3.8-6.33,0-12.62,1.31-18.94.53-5.53-.61-11.08-.5-16.6-.68-4.76-.06-9.52-1.06-14.26-.11C939.14,525.26,929.92,517.77,921.33,509.62Z"/><path class="cls-19" d="M953.81,537.93l.82-.37c33.24,1.75,66.47,4,99.64,7,7.08.88,14.23,1.26,21.24,2.74.55,4.69-4.69,5.5-8.1,6.47-5.15,1.42-10.36-.33-15.4-1.29-7.8-1.64-15.91-2.16-23.73-.47-7.78,1.42-14.58,5.88-22.34,7.4-13.94,2.92-28.53,2.21-42.34-1.05-2.51-.73-5.56-.61-7.64-2.06-3-8.41-12.34-11.63-17.12-18.83,5,.81,9.87,2.6,14.92,3.51l1.5,1,1.83.28.39-.84C956.21,540.28,955,539.14,953.81,537.93Z"/><path class="cls-19" d="M684.6,565c30.81-18.45,67.41-24.27,102.82-24.9,57.49-.25,114,12.68,169.11,27.81a28.44,28.44,0,0,0,7.2,1.84c8.53.19,17.14-.23,25.58,1.38-.36,1.26-.34,2.94-1.92,3.29-6.91,2.63-14.33,3.59-21.65,4.15-8.61.8-17.52,1.46-25.88-1.21-19.74-6.68-40.9-6.9-61.51-6.41-21.28.33-42.43,3.45-63.72,2.69-7.32,0-14-3.4-21.19-4.48a312.42,312.42,0,0,0-59.13-4.42,288.73,288.73,0,0,0-60.19,5.28,6.3,6.3,0,0,0-3.75,2.1c9.89.46,19.75-1.57,29.62-.47,19.86,3.52,40.12,3.93,60.24,4.53,15.72,1.14,31.49.38,47.21,1.56,17.32.6,34.67.39,52,.33,9.48.06,18.89-3.17,28.35-1.61,2.1,2.31-.38,5.42-.87,7.94,12.74.53,25.59-1.15,38.24,1,4.07.89,8.23,2.1,11.65,4.59.41,1.65.67,4-1.22,4.8-7.2,4.57-15.87,5.94-24.14,7.29a124.93,124.93,0,0,1-27.21,2.11c-12.83-.56-25.68,1-38.48-.25-15.55-1.5-30.77-6.15-46.5-5.67-13.14,0-25.79,4.62-38.94,4.51-4.92-.29-9.54-2.2-14.39-2.91a385.08,385.08,0,0,0-70.77-5.82c-22.53.2-44.89,3.34-67.29,5.39q-44.5,5.23-88.7,12.63c-22.18,4.07-44.39,8.35-65.88,15.27-20.43,6-39.86,15-58.34,25.53-20.68,11.88-41.86,22.94-61.73,36.17-21.31,13.65-40.73,30-60,46.29-1.13,1-2.69,1.29-4.12,1.74,7.31-9.13,16.39-16.63,25.14-24.32,16.53-13.75,33.9-26.59,52.68-37.14,41.32-22,82.28-45.29,126.45-61.21,10.17-4,20.76-7,30.67-11.62a29.2,29.2,0,0,0-9.06,1.28c-22.28,6.54-44.53,13.24-66.42,21C364.62,653.49,307,694.35,254.23,740c-4.52,3.88-9,8.32-14.89,10.08,1.59-4.67,4.82-8.51,7.07-12.87-5.94,5.08-9.86,11.92-15.18,17.54-3.93,4.28-7.21,9.43-12.38,12.36-2.54,1.34-3.9-2.24-4.56-4.08,0-6,4.37-10.61,8-14.87,14.5-16.2,27.25-34,43.1-49,4.56-4.16,8.82-8.64,13.53-12.61,2.64-2.38,5.67-4.36,7.74-7.28-21.73,14.69-40.27,33.55-58.54,52.27a96.2,96.2,0,0,1-11.26,10.85c-1.1-.89-3.22-1.23-2.89-3.05.54-5,3.9-9.11,6.24-13.42,3.54-6.43,9-11.45,13.43-17.21A328,328,0,0,1,262,679.26a576.81,576.81,0,0,1,45.54-40.6,560.12,560.12,0,0,1,96.16-60.47,11.34,11.34,0,0,0,3.3-2.58c9.86,11.14,20,22.06,29.79,33.24.52-.34,1.55-1,2.07-1.38,30.15-6.54,59-17.69,88.48-26.69,14.29-4.63,29.61-3,44.07-6.7,5.85-1.52,11.9-2.48,17.45-5a32.72,32.72,0,0,0-6.85-.21c-26.73,2.68-53,8.52-79,15-15.55,4.2-31,8.93-45.66,15.75-3.89,1.81-7.87,3.82-12.3,3.52a273.15,273.15,0,0,1,69.54-36.93c46.84-17.14,98.63-18.34,147-7.13-17.82,2.72-35.82,4.09-53.65,6.71-2.67.09-1.25,2.55.44,2.87,4.94.88,9.93-.34,14.8-1.14q17.72-2.91,35.53-5.18a20.3,20.3,0,0,0,7-2.37C672.08,561.37,678.32,563.31,684.6,565Z"/><path class="cls-19" d="M1061.42,561.31c7.17.24,14.25-1.46,21.44-1-.82,1.07-1.51,2.35-2.95,2.66a49.39,49.39,0,0,1-19.78,3.21c-8.67-.07-17.5.9-26.05-1-2.22-.22-3.31-2.18-4.47-3.78C1040.07,559.15,1050.84,561,1061.42,561.31Z"/><path class="cls-20" d="M559,526.3c15.23-3.59,31-3.14,46.56-3.12,10,.42,20.11.8,29.91,3.08-1.91.36-3.8.83-5.68,1.3-15.4-2.65-31.08-2.33-46.65-2-6.69,0-13.29,1.44-20,1.37C561.74,526.7,560.35,526.5,559,526.3Z"/><path class="cls-21" d="M955.66,541.12l1.82.28-.39.84-1.83-.28Z"/><path class="cls-22" d="M989.73,565.28a35.34,35.34,0,0,1,11.76-1.34c.19.39.55,1.16.73,1.55a27.78,27.78,0,0,1-11.79,3C988.2,568.84,987.18,565.38,989.73,565.28Z"/></g></g></svg>