<svg xmlns="http://www.w3.org/2000/svg" viewBox="0 0 1200 900"><defs><style>.cls-1{fill:none;}</style></defs><g id="Layer_2" data-name="Layer 2"><g id="Layer_1-2" data-name="Layer 1"><rect class="cls-1" width="1200" height="900"/><g id="_000000ff" data-name="#000000ff"><path d="M479.29,135.66h26.52q0,177.15,0,354.28c-8.86,0-17.7,0-26.54,0Z"/><path d="M524.93,135.66h25.45q0,108.29,0,216.58-12.72,0-25.47,0Q525,243.95,524.93,135.66Z"/><path d="M569.17,135.66h26.4V489.94q-13.2,0-26.4,0Q569.2,312.78,569.17,135.66Z"/><path d="M614.38,135.66h26.1V253.77q-13.07,0-26.1,0Z"/><path d="M659.49,135.66h25.75q0,108.29,0,216.58H659.49Z"/><path d="M704.27,135.66h26.4V253.79c-8.8,0-17.6,0-26.4,0Q704.3,194.7,704.27,135.66Z"/><path d="M704.27,272.92c8.8-.06,17.6,0,26.4-.06V489.94c-8.8,0-17.6,0-26.4-.06Q704.3,381.42,704.27,272.92Z"/><path d="M614.41,371.29h26c.08,39.54,0,79.1,0,118.65q-13,0-26.1,0Q614.4,430.61,614.41,371.29Z"/><path d="M659.51,371.31c8.56,0,17.13,0,25.69,0,.08,39.56,0,79.1,0,118.66-8.58,0-17.15,0-25.73,0Q659.52,430.62,659.51,371.31Z"/><path d="M958,547.94c4.11-2.45,8.09.94,11.62,2.82-.28,4.58-1.33,11.45-7.47,11C954.37,563.13,951.76,551.3,958,547.94Z"/><path d="M354.32,551.85c6.39-1.35,13.27-5.84,19.75-3.12,1.57,24.06-1.15,48.34,2,72.33.41,4.07,5.63,4.67,8.16,7.11a159.72,159.72,0,0,1-29.5-.07c2.57-2.57,7.88-3.7,7.62-8.2,1.52-13.1.69-26.32.92-39.47-.15-7.4.56-14.88-.68-22.24-.07-3.72-4.65-3.3-7.11-4.48C355.19,553.24,354.61,552.32,354.32,551.85Z"/><path d="M130.83,552.73c13.49.6,27.49-1.86,40.59,2.38,12.39,4.11,16.16,21.43,8.3,31.25-3.45,4.13-8.65,6-13.36,8.28,8.35,12.53,16.87,25.39,29.8,33.7-5.95.71-12,1.46-18,.45-3.23-1.46-5.42-4.45-7.56-7.17C164,612.41,158.27,602.55,152,593.1c4.37-1.3,9.16-2,12.89-4.77,7.72-6.34,8-19.37,1.3-26.52-4.43-4.5-11.22-4-17-4.65.45,21.71-1.59,43.63,1.39,65.23,2.14,2,4.26,4,6.35,6-8.69.43-17.4.31-26.11.33V627.5c3-4.53,5.91-9.44,5.74-15.09.23-14.47.27-29,0-43.45.17-5.53-2.78-10.3-5.71-14.71Z"/><path d="M420.5,560.42c13.92-11.14,33.29-10.3,49.71-6.32a140.9,140.9,0,0,1-.77,20.23c-4.34-6.4-7.17-15.31-15.46-17.47-8.54-2.84-18.3.58-23.84,7.5-6.94,7.87-8.52,19-8.27,29.15.22,9.74,2.83,20.42,10.6,27,8.44,6,20.59,5.67,29.13,0,4.44-4.32,7.18-10,11.26-14.72,0,6.8-.66,13.55-1.32,20.31a90.76,90.76,0,0,1-38.41,2.16c-10.49-2.54-19.86-10.06-23.22-20.5C405,591.82,406.61,571.46,420.5,560.42Z"/><path d="M851.4,573.75a103.86,103.86,0,0,1,18.28-17c.2,4.39.28,8.78.35,13.19,4.68-.21,9.37-.43,14.06-.62,0,1.28,0,3.85,0,5.14q-7.1,0-14.19,0c.08,12.63-.06,25.28,0,37.91.17,3.34-.15,7.06,2.12,9.84,4.24.47,8.52.39,12.76.9-3.79,4.31-8.89,7.47-14.88,6.25-6.44.77-11.75-4.73-11.78-11-.83-14.55.63-29.11,1-43.65C856.52,574.37,854,574.07,851.4,573.75Z"/><path d="M208.84,570.16a36.28,36.28,0,0,1,21.27-.32c8.44,3.1,13.77,11.66,14.69,20.37,1.37,11.14.08,23.79-7.94,32.33-6.66,6.74-16.7,7.53-25.61,6.49-6.4-.48-11.94-4.86-15.2-10.17-5.15-9.66-5.48-21.33-2.07-31.62,2.07-7.52,7.51-14.24,14.86-17.08m.74,6.44c-6.16,8.67-4.64,20-4.32,30,.28,7.79,4.62,14.64,10.58,19.38,4.7-.65,10.59-.69,13.09-5.57,3.92-8.43,3.94-18.09,3.22-27.17-.84-6.59-1.76-14-7.15-18.6C220.59,570.52,212.92,571.61,209.58,576.6Z"/><path d="M243.64,570.52l1.87-1.14c7.87,0,15.73-.19,23.56.56-2.31,1.65-4.66,3.28-7,4.88,5.4,12.85,10.58,25.76,15.88,38.66,2.83-11.86,7.2-23.33,9.72-35.25,2-5.16-4.9-5.68-7.75-8.1a109.23,109.23,0,0,1,24.45-.17c-4.26,3.3-9,6.68-10.64,12.1-7.17,19.24-13.55,38.77-20.57,58.07-1.28,3.26-2.87,6.88-6.17,8.55-3,.89-6.18.81-9.28,1.07q-2.38-2.41-4.8-4.82c.32-2.72.66-5.44,1-8.14,3.74,1.61,7.38,4.78,11.73,3.73,3.57-3.4,4.79-8.35,6.68-12.72-7-15.51-13.58-31.16-20.41-46.7C250.21,576.83,247,573.49,243.64,570.52Z"/><path d="M311.4,570.14a42.46,42.46,0,0,1,23.78-.11c5.67,2.1,8.5,8.5,8.56,14.25.26,12.68-2.48,25.43,0,38.06l8.8.24c-2.94,9.27-15.65,8.44-20.88,1.69a25.23,25.23,0,0,1-23.5,3.73c-8.28-3.92-8.33-15.71-4-22.5,6.27-8.84,18.09-9.93,28-10-.62-6.57-.26-13.64-3.32-19.67-2.46-4.86-11.77-5.72-13.5,0-1.4,3.86-1.12,8.08-1.61,12.14-3.71-1-9.48-.81-10.21-5.73-1.71-5.4,3-10.43,7.86-12m6.12,33.77c-4.13,3.77-5.57,10.58-2.72,15.52,3.81,4.63,12,4,16.22.28,1.7-6.85.67-14,.84-21C327,600,321.26,600,317.52,603.91Z"/><path d="M495.88,570.43a35.66,35.66,0,0,1,22.82-.32c8.3,3.47,13.65,12.46,13.7,21.33.1,8,1,16.56-2.79,23.91-3.49,7.59-11.19,13.33-19.62,13.76-7,.43-14.9.77-20.64-4-7.9-5.89-9.78-16.55-9.25-25.82-.43-11.41,4.67-24.17,15.78-28.84m5.33,2.64c-5.59,3.47-7.58,10.46-8.41,16.59-.77,10.44-1,22,5.11,31,2.89,4.6,8.61,4.78,13.44,5.38,4-3.84,7.63-8.39,8.07-14.13,1.29-11.18,1.65-23.33-3.5-33.65A11.34,11.34,0,0,0,501.21,573.07Z"/><path d="M536.47,572.13a66.87,66.87,0,0,1,19.63-2.62c.17,3.43.27,6.87.38,10.32,6.46-5.61,13.62-12.54,22.95-11.34,6.18.21,10.87,6,11.3,11.88,1,13.08-.36,26.24.52,39.34-.2,4.58,5,5.91,7.79,8.41a164.26,164.26,0,0,1-27.79.16c2.7-3.15,6.7-6,7-10.56a197.07,197.07,0,0,0,.17-31.77c-.83-3.93-1.31-10.31-6.59-10.23-6.26.34-10.71,5.67-15.54,9.08.38,11.67-.75,23.46.91,35.08.15,4.48,5.34,5.66,8.1,8.25a152.75,152.75,0,0,1-29.55-.07c3.6-2.65,9.08-4.69,8.8-10.08a192.2,192.2,0,0,0-.13-35.82C544.47,577.26,539.36,575.16,536.47,572.13Z"/><path d="M609.31,571.51c7.3-4,16.21-3.64,24.09-1.85,4,.78,7.12,4.52,5.92,8.67,0,4.93-6,5-9.37,6.58-1-5.27-1.87-14-9.34-12.94-7.06-.53-9,8.95-5.37,13.53,7.28,7.41,18.28,10.47,24.36,19.19,4.73,6.87,2.06,17.46-5.39,21.21-8.16,4.52-18.46,4.26-27.25,1.9-6-1.81-7-8.07-6.6-13.46,3.45-1.58,7-3,10.52-4.33.1,4,.15,8,.21,11.93,3.25,2.48,7,5.31,11.36,4,6.15-.47,11.27-8,7.69-13.55C624.75,603,612.52,601.26,606,593,600.86,586.68,601.73,575.47,609.31,571.51Z"/><path d="M662.87,570.33c6.49-2.25,14.07-2.94,20.42.21,7.2,4,10.81,12.72,10.13,20.7-.11,2.55-3.23,3.34-5.31,3.43-9.68.4-19.37,0-29.05.12.28,9.34,1.48,21.84,11.67,25.69,8.33,4.37,15.93-3.06,22.88-6.67-1.8,7.14-7.19,13.84-14.77,15.06-7.51.84-16.12,1.16-22.3-4-7.78-6-10-16.42-9.38-25.75-.39-11.39,4.73-24,15.71-28.83m5.22,2.72c-6,4.09-7.34,11.86-9.2,18.38,6.64-.57,13.36-.38,20-1.47,4-2.93.77-8.63,0-12.53A7.1,7.1,0,0,0,668.09,573.05Z"/><path d="M696.42,572.27c6-1.47,12.07-3,18.28-2.69,4,2.35,2.78,8.07,3.91,12,1.87-4.3,3.66-9.14,7.8-11.75,3.93-1.8,8.34-.94,12.48-.92a13.76,13.76,0,0,1,.79,13.62c-2.23.55-4.43,1.15-6.64,1.73q-1.6-3.24-3.44-6.31c-6.87-.47-9.53,7.34-10.73,12.77a106.75,106.75,0,0,0-.17,26.79c.22,5.63,6.17,7.6,9.91,10.61a169.19,169.19,0,0,1-29.86.15c3.12-2.93,8.15-5.29,8.15-10.25.73-8.12.54-16.29.56-24.43-.23-4.9,0-10.23-2.63-14.58C702.34,576.38,699.16,574.55,696.42,572.27Z"/><path d="M741.6,569.45c8.35-.07,16.72-.19,25.09.3-1.94,1.78-3.89,3.51-5.84,5.24,3.73,13.17,8.18,26.12,12.54,39.11,4-13.25,9.1-26.13,13.11-39.36-2.83-1.52-5.68-3.06-8.46-4.65,8.11-1,16.4-1.24,24.43.45l-7.09,2.83c-5.78,12.56-10.57,25.54-16.1,38.21-3,6.51-4.45,14.15-10,19.13-7.12-16.86-13.7-33.92-20.72-50.81C746.94,576,744.09,572.79,741.6,569.45Z"/><path d="M801.12,582.08c-1.27-5.89,3.94-10.94,9.26-12.27,7.58-1.88,15.82-2.1,23.27.48,5.06,2.56,7.88,8.24,7.62,13.82.75,12.59-1.9,25.43.65,37.89,2.89.41,5.8.79,8.73,1.1-3.89,8.36-16.35,8.3-21.1.79A24.38,24.38,0,0,1,805.8,628c-9-4.34-8.73-17.68-2.46-24.21,6.57-7.19,17-8.13,26.12-8.3-.3-7.54.58-16.21-4.77-22.31-3.24-1.54-7.35-1.77-10.45.24-2.48,4.54-2.49,9.87-3.36,14.85-3.58-1.37-8.78-1.56-9.76-6.14m12.16,24.32c-3.47,4.79-1.61,10.74.32,15.71a34,34,0,0,0,15.75-1.69c-.08-7.26-.06-14.52-.08-21.79C823.53,600.08,816.38,600.47,813.28,606.4Z"/><path d="M906.4,570a35.76,35.76,0,0,1,22.54.4,24.49,24.49,0,0,1,12.84,19.48c1.8,12.12.15,26.87-10.4,34.72-6.57,5.44-15.67,5-23.66,4.33-10.6-1.28-17.38-11.75-18.15-21.77-1.74-13.9,2-31.92,16.83-37.16m-.84,8.39c-5.63,12.35-5.1,27.51.19,39.9,2.34,6.1,9.12,7.34,14.88,7.75,3.21-3.4,6.81-6.87,7.62-11.73,2.59-12,2.29-25.2-3.17-36.35C921.44,570.11,908.75,570.16,905.56,578.4Z"/><path d="M946.34,572.81a73.37,73.37,0,0,1,21.06-3.49c2.68,17.86-1.92,36.31,2.44,54a73.73,73.73,0,0,0,6.85,4.75,141.54,141.54,0,0,1-28.59.07c2.5-2.62,7.53-3.86,7.44-8.23,1.82-14.29,2.23-28.92-.49-43.13A78.69,78.69,0,0,1,946.34,572.81Z"/><path d="M975.94,574.42c6.06-4.78,14-4.58,21.35-5.08a96.23,96.23,0,0,1,2.46,12.5,77.52,77.52,0,0,1,6.89-12.33c5.18-.7,13.06-2.78,15.54,3.54,3,5.75-2.82,10-7.45,11.83q-1.76-3.5-3.72-6.82c-8-.92-10.34,9.11-11.2,15.32-.25,9.79-1.88,20.36,2.14,29.63a89.51,89.51,0,0,0,12.83,4.73c-12.06,1.14-24.73,2.48-36.57-.66l7.35-2.06c2.25-5.78,2.74-12,3.14-18.13.33-10.3.69-21.09-3.78-30.66Z"/><path d="M1028.9,579.64c5.87-10,19.32-13.76,29.89-9.59,5.27,2.18,8.3,7.36,10.38,12.41v11.76c-11.19.9-22.41.49-33.61.58.75,9.35,1.57,21.87,11.9,25.73,8.08,3.93,15.91-2.15,21.71-7.26v5c-7.83,14.79-32,15.13-40.82,1.35-7.32-12-6.51-28,.55-40m6.79,11.56c7.13-.3,14.26-.58,21.39-1.11-.49-6.23.38-14.8-6.38-18C1040.34,571,1037.42,583.47,1035.69,591.2Z"/><path d="M410.66,663.06c6.25-7.88,19.63-9.87,27.36-3.06,2.43,6-2.17,10.1-7.07,12.52C429.13,668,429,660.13,422.24,661c-9,7.18-7.62,20.36-11,30.44h10.38c-.15,1.18-.43,3.54-.58,4.71H410.44c-3.34,14.52-6.95,29-10.27,43.52-2,9.45-6.38,18.69-14.24,24.69h-2.59l-.08-5.16c2.57-4.41,5.09-8.91,6.31-13.9,4.07-16.27,7.37-32.73,11.71-48.93-2.44-.09-4.86-.17-7.3-.24.51-1.43,1-2.87,1.5-4.3,2.29-.36,4.6-.71,6.91-1.09C404.83,681.45,405.2,671.24,410.66,663.06Z"/><path d="M647.57,666.34c6.16-2.51,12.8-6.11,19.61-4.67,2.69,5,1.13,11,1.54,16.44.32,20-1.25,40.14,1.92,59.94l6.19,1.35c-.17.75-.49,2.27-.66,3q-13.53-.07-27.06,0c0-.58-.11-1.74-.15-2.32a47.34,47.34,0,0,0,7.12-4.08c2.13-13.56.71-27.38,1.12-41.06-.34-8.5,1-17.21-1.11-25.54C653.28,668.29,650.45,667.28,647.57,666.34Z"/><path d="M830.29,666.47c6.08-2.7,12.48-5.4,19.27-5.25a5,5,0,0,1,2.55,5.35c.53,23-.75,46,.68,69,3.15.66,6.3,1.37,9.44,2.18a13.59,13.59,0,0,1-21.55-.17c-5.27,3.23-11,6.34-17.49,5.46-10.73.32-19.05-9.64-20-19.72-1.41-12.41-.38-26.67,9-35.94,7.71-7.3,19.42-6.7,28.6-2.8-.36-5.25-.72-10.51-1.41-15.72-3-.79-6.08-1.58-9.08-2.41m-4.86,21c-8.41,4.68-10,15.56-10.18,24.29-.3,8.42.81,18.93,8.86,23.64,5.28,3.08,11.21.19,16.27-1.89-.17-14.75,2.48-30-1.93-44.31C834.34,687.79,829.65,684.6,825.43,687.47Z"/><path d="M467,666.91c9.55-3.31,20.36-2.16,29.63,1.67a121.94,121.94,0,0,1-1.07,17.58C491.42,680.42,489,672,481.34,670c-4.49-1.65-8.9.79-13.14,2-1,5.11-3.36,11,0,15.69,7.19,10.48,21.28,13.48,28.23,24.21,6.47,9.93,1.18,25-9.84,29.11-10.23,4-21.9,2.18-31.83-1.88a180.66,180.66,0,0,1-.3-19.33c4.73,4.69,7.34,11,10.7,16.61,5.42,2,11.67,3.45,17,.4,7.08-3.19,8.82-13.55,3-18.75-9.05-8.45-21.94-13-28.14-24.36C451.37,684.1,456.45,670.36,467,666.91Z"/><path d="M612.22,687.25a113.85,113.85,0,0,1,18.22-17.77c.26,4.58.39,9.19.45,13.81,4.58-.32,9.16-.56,13.74-.81,0,1.2,0,3.59,0,4.77H630.8c.41,16.48-.89,33,1,49.45,3.91-.45,7.79-1.07,11.66-1.82-.4,9.42-12.39,9.81-19,6.85-6-3.27-6.38-10.87-6.27-16.85.25-12.31,1.32-24.59,1-36.9C617.49,687.79,614,687.42,612.22,687.25Z"/><path d="M511.06,692.18c6.76-10.37,21.14-12.7,32.21-8.82,4.11,1.86,8.09,6.55,6.34,11.32-1.18,3.66-5.37,4.54-8.22,6.46-1.71-6.68-4-13.82-10.66-17.1-4.13,2.25-9.08,4.58-10.26,9.63-3.14,10.69-4,22.91.6,33.31,2.64,6.4,10.73,9.46,17,6.87,4.37-2.41,8.26-5.58,12.63-8-1.84,4.69-3.68,9.83-8,12.91-9.29,6.85-24.26,5.8-31.6-3.47C502.51,722.68,503.26,705,511.06,692.18Z"/><path d="M572.71,683.12c8.2-2.16,18-2.5,25.09,2.82A24.06,24.06,0,0,1,607.38,704c.46,9.68,1,20.53-5.24,28.64-9.8,14-34.74,14.65-43.58-.7-4.95-9.78-4.86-21.47-1.67-31.79a25.61,25.61,0,0,1,15.82-17m3.74,3.45c-7.57,4-8.67,13.83-9,21.49-.23,9.78.11,21.21,7.66,28.43,5.87,5.24,16,2,17.81-5.61a63.2,63.2,0,0,0-.42-35.67C590.62,688.54,583.22,683.42,576.45,686.57Z"/><path d="M690.27,683.89a38.74,38.74,0,0,1,23.36-.86c6.63,2,9.8,9.21,9.63,15.67-.08,12.33-1.76,24.69-.06,37a94.19,94.19,0,0,1,9.65,1.82c-3.21,2.46-6.29,6.17-10.79,5.57-4.51.69-7.7-2.81-10.87-5.33-6.85,4.75-16.25,7.64-24,3.38-9.14-5.18-8.09-19.2-.64-25.37,6.72-6.12,16.31-6.72,24.94-7-.47-6.76.51-14.36-3.62-20.2-2.64-3.84-9-4.95-12-1-2.63,4-2,9.1-2.72,13.62-3.38-1.12-8.8-.26-10-4.59-1.82-5.48,2-10.87,7.1-12.69M696.44,718c-4.31,4.51-5.68,13.46.49,17,4.6,2.89,9.83.21,14.3-1.54,0-7,0-13.92,0-20.87C706.13,713.49,700.12,713.65,696.44,718Z"/><path d="M755.75,692.77c6-4.86,12.23-11.32,20.64-11a11.93,11.93,0,0,1,12.82,11.07c1,15-1.24,30.29,1.59,45.21,1.41.28,4.21.85,5.61,1.11,0,.83-.09,2.44-.13,3.26-8.37,0-16.74,0-25.11,0,0-.52.06-1.59.1-2.12,2.23-2.57,5.27-5,5.59-8.63,1.31-8.48,1-17.12.86-25.67-.36-5.88-.52-12.67-5.18-17-7-.58-11.88,5.28-17.26,8.67.24,11.58-.72,23.24.52,34.76-.13,4,3.53,5.87,6.27,7.94,0,.5.09,1.48.11,2-8.74,0-17.51,0-26.25,0,0-.54,0-1.63.05-2.17,2.2-1.45,4.47-2.74,6.53-4.37,1.64-7.31,1-14.85,1.15-22.26-.17-7.32.49-14.81-1.3-22-2.3-2.06-4.89-3.75-7.33-5.63,6.08-1.76,12.35-3.9,18.78-3C755.8,685.77,755.09,689.52,755.75,692.77Z"/><path d="M360.54,691.72c8.87-4.38,21.69.07,23.94,10.24,3.53,13.61-1,30.31-13.42,38-7.52,4.88-19.33,4.29-24.81-3.38-3.73-5-3.41-11.62-3.24-17.53.43-11.26,6.77-22.93,17.53-27.32m1.55,5.14c-8.4,6.28-9.3,18-9,27.74.11,5.12,2.17,12.72,8.55,12.61,6.2.6,10-5.58,11.55-10.72,2.42-8.46,3.6-18,0-26.31C371.59,695.73,365.88,695,362.09,696.86Z"/></g></g></g></svg>