<svg id="Layer_1" data-name="Layer 1" xmlns="http://www.w3.org/2000/svg" viewBox="0 0 1200 900"><defs><style>.cls-1{fill:#fff;}.cls-2{fill:#2a377b;}</style></defs><g id="_ffffffff" data-name="#ffffffff"><path class="cls-1" d="M515.52,531.1c2.36,4.72,3.79,9.83,5.8,14.71-3.82,0-7.62,0-11.43,0C511.77,540.94,513.87,536.1,515.52,531.1Z"/><path class="cls-1" d="M735.41,531.19c2.91,4.46,4.05,9.79,6.14,14.65-3.9,0-7.79,0-11.68,0A86.53,86.53,0,0,0,735.41,531.19Z"/><path class="cls-1" d="M670,596.39c2.88,0,5.82-.19,8.65.55a18.82,18.82,0,0,1,2.37,3.27c0,2.74,0,5.48,0,8.23-1.69,4.55-6.94,4.65-11,4.42C670,607.37,670,601.88,670,596.39Z"/><path class="cls-1" d="M625.35,604.6c.47.89.94,1.78,1.43,2.67,1.27,4.07,2.81,8.05,4.39,12q-5.67-.09-11.34,0C621.75,614.4,623.82,609.6,625.35,604.6Z"/><path class="cls-1" d="M938.41,604.43c2,4.91,3.94,9.82,5.78,14.78-3.81,0-7.61.06-11.4.07C934.77,614.37,936.73,609.45,938.41,604.43Z"/></g><g id="_2a377bff" data-name="#2a377bff"><path class="cls-2" d="M395,189c17.44-2.08,35.64-.85,52,5.82,9.13,4,18.15,11.62,18.84,22.26.61,12-7.7,22-16.2,29.39-18.94,15.31-42.84,23.2-66.68,26.67-5.9.94-11.92.43-17.8,1.48-15.11-.66-31.07-1.83-44.22-10.19-6.84-4-13-11.22-12.51-19.6-1-12.54,8.53-22.39,17.34-29.92C345.7,199.78,370.29,191.72,395,189Z"/><path class="cls-2" d="M237.22,315.49c4.93-22.74,16.13-43.69,29.78-62.36.32,14.75-.66,29.53.83,44.23v90c51.65.13,103.19-5.7,154-15.06,8.88-2,18-3.11,26.6-6-1.91,3.13-5.73,2.86-8.81,3.87-3.85,1.13-7.63,2.58-11.55,3.51L423.86,375a921.23,921.23,0,0,1-156.07,33.55c.13,99.3,0,198.59.08,297.9a19.67,19.67,0,0,1-.81,5.25c-19.83.26-39.7.48-59.5-.51-6.86-1.05-13.78-.46-20.66-1.1,10.65-91.2,20.34-182.5,30.79-273.71-46.13-8.19-91.87-19-136.36-33.79,10.75.5,21.52,1.71,32.27,2.5,9.13-.26,18.21,1.22,27.3.93C117.67,400.71,94.23,396,71.46,388.8a14.56,14.56,0,0,1-9.52-3.29c26.22,5.06,52.92,7.2,79.51,9.28C107.83,386.89,74,379.23,41.29,368a22.7,22.7,0,0,1,5.2.49c17.81,4.23,36,6.85,54,10,18.66,2.34,37.29,4.91,56,6.22,9.55,1.61,19.31.67,28.88,2.24,13.82,0,27.62.86,41.45.6A615.79,615.79,0,0,1,237.22,315.49Z"/><path class="cls-2" d="M761.57,448.92c12.18-8.5,31.6-6.54,40.57,5.82a32.5,32.5,0,0,1-.54,36.88c-8.76,10.95-25.58,12.66-37.66,6.58-17.51-9.51-18.61-38-2.37-49.28m11.81-1c-7.58,4.55-9.23,14-9,22.11,0,8.34-.65,18.3,5.81,24.65,5.92,5.72,16.17,3.71,20.51-3a60.19,60.19,0,0,0,0-37.78c-2.36-2.41-4.64-5.38-8.15-6A49.07,49.07,0,0,0,773.38,448Z"/><path class="cls-2" d="M826.2,454.2c5.83-11.6,21.84-12.62,32.44-7.49,0,1.09-.07,3.26-.08,4.35-5.77-2.72-12.54-4.81-18.77-2.53-2.84,1.08-3.76,4.06-4.67,6.65.54,1.6,1,3.23,1.5,4.88,6.69,5.86,16.7,6.37,22.61,13.27,4,6,4.44,14.66-.24,20.41-7.48,9.49-21.83,9.67-32.15,5.31-2.61-.74-2.3-3.75-2.53-5.82,7,3.15,14.68,6.67,22.42,3.8,3.11-.91,3.84-4.29,5-6.88-1.09-2.31-1.55-5.3-4.12-6.47-7.15-4.14-16.52-5.88-21-13.48C824.61,465.09,823.94,459.34,826.2,454.2Z"/><path class="cls-2" d="M409.46,445.21c4.5-.07,9-.08,13.54,0,0,17.5-.12,35,.06,52.48,8.91.06,17.84-.14,26.75.13-.23.6-.71,1.79-.95,2.39-13.13.55-26.3.09-39.44.23C409.4,482,409.3,463.62,409.46,445.21Z"/><path class="cls-2" d="M466.55,445.25q6.63-.13,13.28-.06c.1,18.42,0,36.84,0,55.27-4.42,0-8.84,0-13.26-.07C466.61,482,466.72,463.64,466.55,445.25Z"/><path class="cls-2" d="M503.37,445.17c12,.06,24.09-.09,36.14,0a2.58,2.58,0,0,1,2.71,2.41c-8.47.59-17,.27-25.43.21-.26,7.4-.28,14.83,0,22.23,5,.07,10.11-.26,15.16.16l.72,2.46c-5.28.2-10.56.16-15.84.08-.24,8.11-.38,16.25,0,24.37,8.11,1.35,16.9.17,25.28.56,0,.69,0,2.08,0,2.77q-19.35,0-38.69,0Z"/><path class="cls-2" d="M557.44,445.39c16.06-.51,32.13-.08,48.21-.22v2.77c-5.7,0-11.39,0-17.09,0-.18,17.48,0,35-.09,52.45-4.41.07-8.82.07-13.23,0,0-15.67,0-31.33,0-47-.31-1.74.67-4.52-1.5-5.35-5.19-.42-10.42-.08-15.61-.11Z"/><path class="cls-2" d="M623.86,445.25c4.51-.11,9-.11,13.55,0,.07,12.93,0,25.83,0,38.76-.33,5.69,3.58,12.27,9.73,12.66,4.45.56,9.3.45,13.23-2a14.94,14.94,0,0,0,4.93-12.18c-.1-12.41.08-24.82-.08-37.24l4.92.14c-.26,11.45-.06,22.89-.1,34.35-.23,5.36-.54,11.41-4.56,15.48-3.73,4.66-10,5.71-15.53,6.41-7.16.35-15.08-.66-20.68-5.56-3.9-3.28-5.6-8.55-5.47-13.53C623.86,470.11,623.75,457.68,623.86,445.25Z"/><path class="cls-2" d="M687.16,445.19c5,0,9.9,0,14.85,0,4.76,14.18,9.12,28.57,15,42.32,4.2-14.32,10.18-28,14.85-42.21l5.28-.11c-6.42,18.52-13.72,36.71-20.13,55.23-3.26.06-6.53,0-9.79,0C701,481.83,694,463.54,687.16,445.19Z"/><path class="cls-2" d="M1023.34,531.1c3.06-3.15,8.13-1.73,10.55,1.5.39,1.29.82,2.57,1.27,3.87-.94,3.17-2.93,6.47-6.54,6.86-3.56.62-5.83-2.43-8-4.67C1020.84,535.93,1020.82,532.82,1023.34,531.1Z"/><path class="cls-2" d="M409.42,546.34c5.27-.09,10.57-.18,15.85.18,7.93,12.91,15.93,25.81,24.38,38.38.14-12.89-.14-25.77.15-38.67l4.92.08c.06,18.75.12,37.47,0,56.21-3.95,0-7.89,0-11.84,0-1.15-2-2.34-4-3.47-6-8.71-13-16.32-26.61-25.1-39.52.11,15.21.06,30.41,0,45.61-1.23,0-3.67-.09-4.9-.14Q409.33,574.39,409.42,546.34Z"/><path class="cls-2" d="M495.4,546.15l6.19.21c.7,2,1.45,4,2.17,6,5.15,12.53,10,25.2,15,37.76,1.58,4.08,3.51,8.09,4.27,12.46-4.68,0-9.36-.09-14-.07-2.1-5.5-4.78-10.83-6-16.6-6.32-.54-12.65-.21-19-.39-2.57,5.65-4.21,11.71-7.22,17.15l-4.08-.09c1.75-7.4,5.38-14.16,7.92-21.27,5-11.7,8.86-23.9,14.75-35.15M493,561.64c-2.28,6.91-5.18,13.6-7.78,20.39,5.26,0,10.51,0,15.79-.06C498.26,575.23,496.28,568.17,493,561.64Z"/><path class="cls-2" d="M546.22,552.52A27.66,27.66,0,0,1,564.16,546c6.45-.2,13.29-.42,18.93,3.34-.1,1.73-.17,3.46-.22,5.2-6.3-4.63-14.69-7.17-22.27-4.29q-2.18,1.51-4.39,3c-6.37,8.33-6.59,19.47-5.39,29.44,1.27,6.29,3.77,14,10.72,15.93,6.1,3,12.7.11,18.69-1.67,1.08-.9,2.18-1.78,3.3-2.65,0,1.64,0,3.3,0,5-10.52,5.17-23.51,5.56-33.93,0C532.84,590.47,531.83,564,546.22,552.52Z"/><path class="cls-2" d="M602.88,546.15c4.12.11,8.25.11,12.4.16.08,18.73.05,37.46,0,56.2-4.14,0-8.28,0-12.41.1-1.38-4-.73-8.21-.81-12.3,0-12.93,0-25.85-.05-38.77A17,17,0,0,1,602.88,546.15Z"/><path class="cls-2" d="M656.2,546.55c9.19-1.29,19.41-1.23,27,5,11.91,9.59,13.35,28.9,4.64,41.09-11.58,15.68-40.18,14.18-48.76-3.85a34,34,0,0,1-.11-28.63c3.65-6.55,9.81-11.87,17.23-13.56m-4,11.55a55.48,55.48,0,0,0,.35,33.42c2.75,7.47,12.07,10.4,19,6.91,5.17-3.81,7.15-10.2,7.4-16.39a118.72,118.72,0,0,0-.36-18.95c-1.31-5.21-3.4-11.65-9.29-13.11C662.69,547.1,654.19,551.18,652.2,558.1Z"/><path class="cls-2" d="M713.66,546.27c5.24,0,10.47,0,15.73.09,8.09,13,16.18,26,24.62,38.79.21-13,0-25.91.09-38.88,1.23,0,3.69.06,4.92.07.08,18.72.05,37.44,0,56.16H747c-9.23-15.52-18.82-30.88-28.62-46,0,15.34,0,30.7,0,46h-4.72C713.64,583.76,713.73,565,713.66,546.27Z"/><path class="cls-2" d="M799.21,546.23h6.23c.4.81,1.22,2.44,1.62,3.26,6.9,17.7,14.11,35.28,20.76,53.09q-7.22-.17-14.4,0a178,178,0,0,1-6.35-16.7c-6.24-.56-12.5-.19-18.75-.31-2.14,5.58-4.62,11-6.37,16.79l-5.14.27c1.72-6.2,4.65-12,6.86-18,4.69-11.17,8.7-22.63,13.67-33.67.61-1.59,1.23-3.16,1.87-4.74m-2.28,15.54A119.75,119.75,0,0,1,789.27,582c5.38-.08,10.75,0,16.14,0C802.53,575.3,801,567.93,796.93,561.77Z"/><path class="cls-2" d="M846.13,546.25c4.42,0,8.85,0,13.28.15-.11,17.48,0,35,0,52.45q12.72-.06,25.46,0c0,.92,0,2.74,0,3.65-12.89.07-25.8,0-38.7,0Z"/><path class="cls-2" d="M902.87,546.29c4.54,0,9.12,0,13.68,0,.15,18.73,0,37.46.07,56.19-4.62,0-9.21,0-13.81,0C902.83,583.8,902.71,565,902.87,546.29Z"/><path class="cls-2" d="M939,546.33c5.28-.07,10.59-.08,15.88,0q11.91,19.49,24.48,38.56c.08-12.88-.1-25.78.07-38.67,1.22,0,3.63,0,4.85,0,.1,18.74,0,37.48,0,56.23-3.94,0-7.88.08-11.8,0C963.13,587.32,954,572,944.15,557.16c-.28,15.1,0,30.2-.12,45.3-1.68,0-3.35,0-5,.06C938.94,583.78,938.9,565.06,939,546.33Z"/><path class="cls-2" d="M1007.08,546.33c12.68-.11,25.39,0,38.09,0,0,.92,0,2.79,0,3.71q-12.44-.06-24.88,0c0,7.08,0,14.17,0,21.24,5.37-.12,10.75-.16,16.13.13-.05.85-.12,2.57-.14,3.41-5.34.13-10.67.08-16,.15q0,12,0,24c8.69-.07,17.41-.18,26.12,0,0,.86,0,2.59-.05,3.44-13.11.25-26.21.11-39.31.09C1007,583.74,1007,565,1007.08,546.33Z"/><path class="cls-2" d="M845.4,654.37c11.32-9.87,30-9.51,41,.76,10.56,11.59,10.43,31.29-.58,42.57-7.38,6.91-18.14,8.36-27.8,6.84-6.28-1.95-12.5-5-16.2-10.63-7.77-11.86-7-29.61,3.62-39.54m7.92,4.32c-3.46,9.72-2.32,20.39-1.49,30.48,1.45,3.92,2.72,8.43,6.7,10.57,5.65,2.92,13.89,2.12,17.68-3.47,3.69-6.09,3.52-13.45,3.7-20.31-.1-6.83-.21-14.17-4.09-20.09C870.48,648.3,856.14,649.38,853.32,658.69Z"/><path class="cls-2" d="M1078.42,649.72c1-3.33,5.18-.94,7.63-1.28q2.71,6.45,5.1,13.09c4.11,9.89,7.77,20,11.9,29.86,1.65,4.3,3.8,8.48,4.49,13.08-4.54-.08-9.09.18-13.61-.18-1.49-.84-1.54-2.81-2.17-4.19-1.7-4.37-3.43-8.71-5.13-13.07-6,.13-11.93-.24-17.87.15-3.26,5.32-4.41,11.86-7.53,17.36-1.63-.06-3.26-.1-4.85-.14,2.15-5,4.09-10.2,6.34-15.2,5.23-13.18,10.28-26.39,15.7-39.48M1077.5,663c-2.33,6.94-5,13.74-7.77,20.53q7.86,0,15.75-.1C1082.94,676.56,1080.2,669.78,1077.5,663Z"/><path class="cls-2" d="M409.42,648.35q18.54,0,37.1,0c0,.89-.12,2.66-.18,3.54-7.79.06-15.59,0-23.38.07.11,7.55-.1,15.09.1,22.64h15.35c0,.69,0,2.06,0,2.75-5.11,0-10.22,0-15.34,0-.05,8.76-.12,17.52,0,26.27-4.39,1.35-9,.7-13.53.84C409.28,685.78,409.42,667.07,409.42,648.35Z"/><path class="cls-2" d="M463.8,648.48c4.71-.19,9.44-.19,14.15-.1q-.07,25.56,0,51.13c-.22,1.63.52,3.91-1.34,4.82-4,.25-8.05.07-12.06.23a19.56,19.56,0,0,1-.74-5.08C463.87,682.48,464,665.48,463.8,648.48Z"/><path class="cls-2" d="M500.61,648.34c4.45,0,8.9,0,13.35,0-.11,17.49-.25,35,.07,52.48,9,.13,17.91-.3,26.85.29-.83,1.16-1.15,3.57-3.1,3.25-12.38.11-24.76-.07-37.15.07C500.56,685.75,500.63,667.05,500.61,648.34Z"/><path class="cls-2" d="M557.45,648.45c4.54-.15,9.08-.15,13.63-.05,0,8.28,0,16.55,0,24.85,7.37-.07,14.74,0,22.1,0,0-8.29,0-16.59,0-24.87,4.42,0,8.86,0,13.3.06q-.16,25.56,0,51.11c-.2,1.63.6,3.91-1.33,4.8-4,.3-8,.07-11.9.15-.17-9.08-.06-18.16-.08-27.24-7.38-.2-14.76,0-22.13-.14,0,9.12.11,18.23-.08,27.35q-6.72,0-13.44,0C557.36,685.77,557.58,667.11,557.45,648.45Z"/><path class="cls-2" d="M646.17,648.44a39.42,39.42,0,0,1,7.37-.1c5.36,13.61,10.57,27.3,16,40.88,1.85,5.06,4.39,9.91,5.47,15.25-4.66,0-9.31-.06-14,0-2.53-5.74-4.71-11.62-7-17.46-5.9.07-11.8-.22-17.69.1-3.58,5.11-4.5,11.79-7.39,17.37l-4.23,0a26.26,26.26,0,0,1,.85-4.43c6.5-17.34,14.3-34.19,20.53-51.63m-1.36,14.79c-2.11,6.91-5,13.54-7.62,20.27q7.83-.11,15.67,0c-2.19-5.48-4.31-11-6.07-16.6C646.11,665.69,645.46,664.46,644.81,663.23Z"/><path class="cls-2" d="M692.94,648.34c9.63.11,19.27-.16,28.9.11,7.16.17,13.57,6.3,13.56,13.57,1,7.47-5.45,13.48-12.21,15.1a25.87,25.87,0,0,1,4.58,5.1c4.67,7.34,9.4,14.63,13.64,22.23-4.92,0-9.83-.09-14.72.07-5.38-8.51-10.28-17.33-15.18-26.12-1.63-.21-3.24-.4-4.85-.59-.27,8.88,0,17.79-.15,26.69L693,704.43c-.19-18.7,0-37.39-.08-56.09m13.61,3.54c0,7.59,0,15.17,0,22.76,5.63.32,12.89.18,15.23-6.11,0-3.8,0-7.58,0-11.37a25.93,25.93,0,0,0-3.27-4.52C714.6,651.62,710.53,651.93,706.55,651.88Z"/><path class="cls-2" d="M759.07,648.34c5.48,0,10.95,0,16.44,0,4,13.11,7.9,26.25,11.91,39.37,4.33-13,7.81-26.29,12.05-39.34,5.7,0,11.42-.05,17.13.08-.24,18.26.11,36.53-.16,54.78-3.4,2.64-8.7.88-12.82,1.12l-1-.94c-.35-15.8-.08-31.64-.06-47.45-5.5,15.59-9.53,31.65-15,47.25-3.36-.12-6.71-.16-10-.14-4.74-15.6-9-31.37-14.18-46.83-.48,16.11.13,32.25-.32,48.37l-3.89-.08C759,685.78,759.11,667.07,759.07,648.34Z"/><path class="cls-2" d="M914.37,648.42c5.22-.11,10.46-.08,15.7-.11,8.75,12.76,16.21,26.35,25.19,39,.13-13,0-25.94.07-38.9l4.12,0c0,18.7.1,37.4-.06,56.1-3.59-.05-7.15-.05-10.72.12-10.3-15-19.34-30.91-29.25-46.21-.16,15.46.13,30.94-.15,46.41-1.63-.42-3.78.1-4.79-1.56C914.31,684.94,914.52,666.68,914.37,648.42Z"/><path class="cls-2" d="M982.1,648.42c4.7-.12,9.41-.12,14.13.05-.1,14.23,0,28.48,0,42.73-.06,4.44.44,9-.69,13.34-4-.13-8.06.09-12.07-.24-1.91-.87-1.09-3.16-1.3-4.77Q982.18,674,982.1,648.42Z"/><path class="cls-2" d="M1027.45,648.4c4.51-.09,9-.09,13.54,0,0,14.77.16,29.56-.08,44.34-.07,4.74-3.48,8.45-7.32,10.79-6.44,2-13.8,2.46-20.17,0,.08-1,.25-3.14.32-4.19a39,39,0,0,0,10.85,1.77c1.3-1.66,3-3.28,2.78-5.6C1027.53,679.78,1027.33,664.08,1027.45,648.4Z"/></g></svg>