<svg xmlns="http://www.w3.org/2000/svg" viewBox="0 0 1200 900"><defs><style>.cls-1,.cls-3{fill:none;}.cls-2{fill:#1d1d1b;}.cls-3{stroke:#1d1d1b;stroke-width:0.5px;}</style></defs><g id="Layer_2" data-name="Layer 2"><g id="Layer_2-2" data-name="Layer 2"><rect class="cls-1" width="1200" height="900"/><path class="cls-2" d="M555.73,759.43c-29.25,0-27.55-36.13-27.55-36.13l-32,17.91c11.63,20.88,38.17,22.51,53.27,22.51,43,0,62-26.87,62-56.23,0-4.59-.09-194.06-.06-194,.08-13.73,9.66-19,10.19-20.92,0-.1-42.21,20-42.21,20s.26,203.9.26,212.53,1.2,34.3-23.88,34.3"/><path class="cls-2" d="M159.79,229H144.6v-2.64h46.05V229h-13v19.64c-5.6,4.45-19.48,17.65-44.4,17.65-29.54,0-52.16-21.77-52.16-60.71,0-33.83,24.27-60.73,52.16-60.73,18.16,0,26.25,11.23,31.7,11.23,5,0,5.78-4.13,5.78-8.25h2.64v35.3h-2.64c-.66-17.65-16.84-35.64-37.48-35.64-29.38,0-33.34,36.47-33.34,58.09,0,21.28,4,58.07,33.34,58.07,15.85,0,26.58-5.12,26.58-20.13Z"/><path class="cls-2" d="M215,257.17a8.55,8.55,0,0,1-8.41,8.41,8.42,8.42,0,1,1,0-16.83,8.56,8.56,0,0,1,8.41,8.42"/><polygon class="cls-2" points="269.68 150.09 255.16 150.09 255.16 147.45 302.04 147.45 302.04 150.09 286.52 150.09 286.52 202.55 346.61 202.55 346.61 150.09 331.09 150.09 331.09 147.45 377.96 147.45 377.96 150.09 363.44 150.09 363.44 260.96 377.96 260.96 377.96 263.6 331.09 263.6 331.09 260.96 346.61 260.96 346.61 205.19 286.52 205.19 286.52 260.96 302.04 260.96 302.04 263.6 255.16 263.6 255.16 260.96 269.68 260.96 269.68 150.09"/><path class="cls-2" d="M402.89,222.52H446a1.31,1.31,0,0,0,1.48-1.49c0-6.93-10.07-28.7-29.55-28.7C399.92,192.33,387,213,387,229c0,21.77,13.54,36.62,32.85,36.62,15.19,0,26.4-10.23,29.05-25.41h-2.65c-2.3,13.53-12.54,22.77-26.4,22.77-15.52,0-17.16-13.2-17-24.91Zm28.72-3.8a1,1,0,0,1-1.16,1.16H402.89v-4.62c0-10.56,3.46-20.3,15-20.3,10.9,0,13.71,9.74,13.71,20.3Z"/><path class="cls-2" d="M469.24,198.59h-13V196h13c7.92,0,10.89,0,13.86-3.62v16.82h.33c4.29-7.91,12.55-16.82,24.59-16.82,17.67,0,22.62,8.91,22.62,18.64v50h13v2.64H503.74V261h13V207c0-9.08-4.45-12-9.73-12-13.87,0-21,13.86-23.94,19.46V261h12.55v2.64H456.2V261h13Z"/><path class="cls-2" d="M561.84,149.1H548.63v-2.64h13.21c5.28,0,10.56-.33,13.86-4.13V261h13.21v2.64H548.63V261h13.21Z"/><path class="cls-2" d="M613.83,222.52h43.08A1.32,1.32,0,0,0,658.4,221c0-6.93-10.07-28.7-29.55-28.7C610.86,192.33,598,213,598,229c0,21.77,13.54,36.62,32.85,36.62,15.19,0,26.41-10.23,29-25.41h-2.64c-2.31,13.53-12.54,22.77-26.41,22.77-15.51,0-17.16-13.2-17-24.91Zm28.72-3.8a1,1,0,0,1-1.16,1.16H613.83v-4.62c0-10.56,3.47-20.3,15-20.3,10.9,0,13.7,9.74,13.7,20.3Z"/><path class="cls-2" d="M739.49,240.34h.32l23.44-65.84c4-11.05,5.78-15.34,5.78-18.14,0-3.63-1.49-6.27-12.88-6.27h-1.8v-2.64h36v2.64h-4.47c-9.4,0-12.21,4.62-14.68,11.38l-38.3,106.09h-1.65L690.14,150.09H676.76v-2.64h48.37v2.64h-16Z"/><path class="cls-2" d="M797,222.52H840a1.32,1.32,0,0,0,1.49-1.49c0-6.93-10.07-28.7-29.55-28.7-18,0-30.87,20.62-30.87,36.63,0,21.77,13.53,36.62,32.85,36.62,15.18,0,26.41-10.23,29-25.41h-2.64c-2.31,13.53-12.55,22.77-26.41,22.77-15.51,0-17.16-13.2-17-24.91Zm28.72-3.8a1,1,0,0,1-1.16,1.16H797v-4.62c0-10.56,3.47-20.3,15-20.3,10.9,0,13.7,9.74,13.7,20.3Z"/><path class="cls-2" d="M864.13,198.59H850.26V196h13.87c5.28,0,10.57-.32,13.85-3.62v19.46h.34c2-7.42,7.76-19.46,21.29-19.46,6.11,0,10.9,4,10.9,9.73,0,4.29-2.64,7.75-7.6,7.75-5.45,0-7.26-2.8-7.26-7.25,0-3.64,1.81-6.11,3.63-7.1A3.69,3.69,0,0,0,897,195c-6.78,0-19,10.72-19,32.17V261h15v2.64H850.26V261h13.87Z"/><path class="cls-2" d="M928.33,149.1h-13.2v-2.64h13.2c5.28,0,10.57-.33,13.87-4.13V261h13.21v2.64H915.13V261h13.2Z"/><path class="cls-2" d="M1023.74,211.46c0-12.7-14.86-19.14-27.4-19.14-16.51,0-25.43,9.25-25.43,17.66,0,5.61,2.65,9.24,7.27,9.24,4.3,0,7.6-3,7.6-6.93,0-7.43-5.45-5.61-5.45-9.57,0-5.94,11.22-7.76,16-7.76,6.27,0,13.53,1.82,13.53,9.58v20.29h-3.13c-17,0-41.6,4.62-41.6,23.1,0,11.22,7.76,17.65,20.64,17.65,10.89,0,18.32-2.8,23.92-10.23h.34c1.15,5.78,6.77,10.23,14.52,10.23,7.1,0,11.4-3.46,14.53-8.91l-1.82-1.32c-2.48,3.47-4.78,6.6-8.58,6.6-4.46,0-5-4.12-5-7.26Zm-13.87,16v21.61c0,3.31-5.45,12.54-17.83,12.54-10.56,0-12-6.93-12-16.16,0-17.66,15-18,27.07-18Z"/><path class="cls-2" d="M1066.49,217.07c0-8.74,0-22.1,13.53-22.1s13.55,8.91,13.55,22.1c0,11.72,0,22.11-13.55,22.11s-13.53-11.55-13.53-22.11M1058.73,256c-4,0-7.26-2.64-7.26-6.76,0-7.75,7.26-10.23,16.18-10.39a24.77,24.77,0,0,0,12.37,3c12.88,0,27.4-10.56,27.4-24.25a25.48,25.48,0,0,0-6.44-16.5c2.15-3.14,6.12-5.94,9.41-6.1-1,1-1.81,2-1.81,5.44a5.28,5.28,0,0,0,5.28,5.11c3.46,0,6.6-1.81,6.6-5.77,0-4.78-3.63-7.42-8.42-7.42-5.61,0-9.73,3.79-12.7,7.09-4.63-4.79-11.56-7.09-19.32-7.09-14.69,0-27.4,11-27.4,25.73,0,8.91,5,14,12.38,18.82v.32c-10.57.17-16.17,4.79-16.17,16.33,0,9.08,4.28,15.35,13.36,15.35v.33c-7.1,3.14-16.5,10.07-16.5,19.3,0,15.84,16.68,21.29,31.86,21.29,20,0,38.12-12.38,38.12-34.81,0-15.18-9.07-19-18.32-19Zm37.46,12.87c8.59,0,15.52,2.47,15.52,11.06,0,16.5-16.5,27.22-33.34,27.22-12.87,0-24.76-5.45-24.76-19.31,0-11.05,5.12-16.82,15-19Z"/><path class="cls-2" d="M539.71,677c.91,28.89,31.42,21.6,31.42,21.6l-35.79,17.1c-22.73-1-27.22-18.17-27.22-28.38V580.71l42-20s-10.31,5.39-10.31,24.18c0,13.19-.08,92.16-.08,92.16"/><path class="cls-2" d="M651.19,599.55c-.91-28.89-31.43-21.6-31.43-21.6l35.8-17.1c22.72,1,27.22,18.18,27.22,28.38V695.85l-42,20s10.31-5.39,10.31-24.18c0-13.19.08-92.16.08-92.16"/><line class="cls-3" x1="79.54" y1="818.74" x2="1115.92" y2="818.74"/></g></g></svg>